<svg width="22" height="22" viewBox="0 0 22 22" fill="none" xmlns="http://www.w3.org/2000/svg">
<path d="M11 21.25C10.081 21.25 9.19141 21.1293 8.34563 20.9032L8.15195 21.6277C6.25888 21.1217 4.56697 20.1233 3.22182 18.7782L3.75216 18.2478C2.49793 16.9936 1.568 15.417 1.09683 13.6544L0.372269 13.848C0.129451 12.9397 0 11.9849 0 11H0.75C0.75 10.081 0.870748 9.19141 1.09683 8.34563L0.372269 8.15195C0.8783 6.25888 1.87668 4.56697 3.22183 3.22183L3.75216 3.75216C5.00638 2.49793 6.58297 1.568 8.34564 1.09683L8.15196 0.372269C9.06035 0.129451 10.0151 0 11 0V0.75C11.919 0.75 12.8086 0.870748 13.6544 1.09683L13.848 0.372269C15.7411 0.8783 17.433 1.87668 18.7782 3.22183L18.2478 3.75216C19.5021 5.00638 20.432 6.58297 20.9032 8.34564L21.6277 8.15196C21.8706 9.06035 22 10.0151 22 11H21.25C21.25 11.919 21.1293 12.8086 20.9032 13.6544L21.6277 13.848C21.1217 15.7411 20.1233 17.433 18.7782 18.7782L18.2478 18.2478C16.9936 19.5021 15.417 20.432 13.6544 20.9032L13.848 21.6277C12.9397 21.8706 11.9849 22 11 22V21.25Z" fill="#F4F4FF" stroke="#6264DB" stroke-width="1.5" stroke-dasharray="5"/>
<path fill-rule="evenodd" clip-rule="evenodd" d="M15.1846 8.41168C15.329 8.55607 15.329 8.79029 15.1846 8.93468C14.2262 9.89309 10.9124 13.2068 9.95415 14.1651C9.88479 14.2345 9.7907 14.2735 9.69259 14.2735C9.59448 14.2735 9.50039 14.2345 9.43103 14.1651C8.8401 13.5742 7.40686 12.1409 6.81581 11.55C6.67142 11.4055 6.67142 11.1713 6.81581 11.0269C6.97559 10.8672 7.17915 10.6636 7.33893 10.5038C7.48332 10.3594 7.71753 10.3594 7.86192 10.5039C8.42315 11.0651 9.69259 12.3346 9.69259 12.3346C9.69259 12.3346 13.1493 8.87775 14.1385 7.88868C14.2078 7.81933 14.3019 7.78039 14.4 7.78027C14.4982 7.78027 14.5922 7.81933 14.6616 7.88868L15.1846 8.41168Z" fill="#6264DB"/>
</svg>
