<svg width="13" height="12" viewBox="0 0 13 12" fill="none" xmlns="http://www.w3.org/2000/svg">
<path d="M4.83631 6.00046C4.692 6.00046 4.57489 6.11835 4.57489 6.2636C4.57489 6.40885 4.692 6.52673 4.83631 6.52673C4.98061 6.52673 5.09772 6.40885 5.09772 6.2636C5.09772 6.11835 4.98061 6.00046 4.83631 6.00046Z" fill="black"/>
<path d="M8.45153 2.98475C8.35454 2.8771 8.18925 2.869 8.08225 2.96654L5.44481 5.37319C5.33784 5.47082 5.32976 5.63722 5.42672 5.7449C5.47833 5.80218 5.54927 5.83129 5.62049 5.83129C5.68312 5.83129 5.74594 5.80879 5.796 5.76311L8.43344 3.35646C8.54038 3.25883 8.54849 3.09243 8.45153 2.98475Z" fill="black"/>
<path d="M12.7692 2.33885L10.6763 0.232208C10.3778 -0.0684523 9.90129 -0.0782673 9.59073 0.209315L8.55983 1.13864C8.5409 1.14977 8.52297 1.16321 8.50674 1.17953C8.49759 1.18874 8.48956 1.1986 8.48203 1.20876L2.90297 6.23796C2.82917 6.30377 2.76941 6.3819 2.7251 6.46979L2.72265 6.47452L2.72102 6.47763C2.71956 6.4806 2.71846 6.48368 2.71705 6.48665C2.71546 6.49021 2.71378 6.4937 2.71237 6.49731C2.67763 6.57299 2.6546 6.65253 2.64508 6.73392L2.44076 8.43768L1.76505 9.1176C1.61693 9.26669 1.53537 9.46491 1.53537 9.67574C1.53537 9.79528 1.56164 9.91072 1.61136 10.0155L0.0771558 11.5502C0.00205066 11.6253 -0.0206142 11.7387 0.0197486 11.8372C0.0601376 11.9357 0.155555 12 0.261429 12H2.49027C2.5596 12 2.62608 11.9723 2.67512 11.9229L3.0909 11.5044C3.19743 11.5555 3.31306 11.5812 3.42876 11.5812C3.62955 11.5812 3.83038 11.5042 3.98323 11.3504L4.65891 10.6704L6.35093 10.4649C6.43333 10.4551 6.51296 10.4315 6.58744 10.3965C6.58997 10.3955 6.5924 10.3942 6.59491 10.3931C6.59852 10.3914 6.60229 10.39 6.60587 10.3882L6.60906 10.3865C6.61078 10.3856 6.61248 10.3847 6.61421 10.3838C6.70163 10.3391 6.77906 10.279 6.84454 10.2046L12.7925 3.43098C13.0778 3.11845 13.0678 2.63938 12.7692 2.33885ZM2.38197 11.4737H0.895313L1.94932 10.4193L2.68939 11.1643L2.38197 11.4737ZM4.50661 10.1589C4.50407 10.1592 4.50167 10.1598 4.49916 10.1602C4.49401 10.1609 4.48886 10.1618 4.48374 10.1629C4.48008 10.1636 4.47649 10.1646 4.47289 10.1655C4.46826 10.1667 4.46363 10.1679 4.45906 10.1694C4.45519 10.1706 4.45142 10.172 4.44763 10.1734C4.44348 10.1749 4.43935 10.1765 4.43524 10.1783C4.43127 10.18 4.42743 10.1818 4.42358 10.1837C4.41982 10.1856 4.41611 10.1874 4.41242 10.1894C4.40842 10.1916 4.40458 10.194 4.40071 10.1964C4.39736 10.1985 4.39402 10.2005 4.39075 10.2028C4.38675 10.2056 4.38291 10.2085 4.37906 10.2114C4.37611 10.2137 4.37316 10.216 4.37031 10.2184C4.36638 10.2217 4.36265 10.2252 4.35893 10.2287C4.35703 10.2305 4.35496 10.2321 4.35311 10.234L3.61353 10.9782C3.51168 11.0808 3.34586 11.0808 3.24394 10.9782L2.13474 9.86167C2.03287 9.75913 2.03287 9.59225 2.13472 9.4897L2.87427 8.74555C2.87683 8.74297 2.87903 8.74021 2.88146 8.73755C2.88402 8.73476 2.88661 8.732 2.88904 8.7291C2.8922 8.72532 2.89515 8.72145 2.89808 8.71753C2.9003 8.71458 2.90253 8.71163 2.90462 8.70858C2.90742 8.70447 2.91003 8.70029 2.91257 8.69608C2.91445 8.69295 2.91636 8.68984 2.91813 8.68663C2.92051 8.68229 2.92268 8.6779 2.9248 8.67348C2.92639 8.67016 2.92796 8.66685 2.92943 8.66345C2.93136 8.6589 2.93311 8.65429 2.93479 8.64966C2.93604 8.64619 2.9373 8.64274 2.93842 8.63922C2.93994 8.6344 2.94122 8.62953 2.94245 8.62464C2.94333 8.62114 2.94425 8.61769 2.94501 8.61414C2.94608 8.60898 2.94689 8.60383 2.94767 8.59862C2.94807 8.59606 2.94867 8.59359 2.94898 8.59101L3.1235 7.13581L5.95253 9.98321L4.50661 10.1589ZM6.50574 9.79581L3.30908 6.57833L8.6856 1.73169L11.2871 4.35053L6.50574 9.79581ZM12.4067 3.07582C12.4053 3.07732 12.404 3.07882 12.4026 3.08037L11.634 3.95551L9.07569 1.38009L9.94092 0.600099L9.94406 0.597231C10.0476 0.500844 10.2069 0.503896 10.3066 0.604362L12.3995 2.71103C12.4993 2.8115 12.5025 2.97172 12.4067 3.07582Z" fill="black"/>
</svg>
