<svg width="199" height="165" viewBox="0 0 199 165" fill="none" xmlns="http://www.w3.org/2000/svg">
<path opacity="0.7" d="M212.068 47.8178C201.08 38.4305 186.326 34.3605 171.894 31.8738C158.714 29.6353 143.485 29.4888 131.362 23.6158C119.801 18.0156 109.281 11.1028 97.1646 6.34096C87.8789 2.69429 78.0688 -0.350033 68.0543 0.0325417C53.3295 0.592159 39.2073 9.14922 32.2747 21.7111C26.3995 32.354 25.6749 44.8284 23.1449 56.6394C20.023 71.1935 14.0531 85.0191 7.67446 98.5436C4.24922 105.808 0.632287 113.23 0.0740536 121.195C-0.707473 132.249 4.76322 143.266 13.3453 150.621C21.9273 157.975 33.3195 161.856 44.7559 162.702C50.8417 163.152 57.2014 162.735 62.6089 159.998C64.321 159.101 65.9431 158.053 67.4539 156.866C67.4539 156.866 70.8981 152.375 72.1094 153.124C74.0411 151.581 76.0254 150.122 78.2457 149.019C83.5668 146.374 89.7917 146.001 95.7658 146.347C96.2489 146.373 96.7299 146.405 97.2088 146.443C98.3843 145.655 102.355 147 102.355 147C107.921 147.78 113.384 149.136 118.649 151.044C127 154.074 134.764 158.459 143.096 161.532C151.427 164.605 160.736 166.316 169.253 163.754C177.245 161.347 183.577 155.5 189.265 149.579C198.624 139.857 207.159 129.424 214.79 118.383C219.932 110.943 224.718 103.092 226.993 94.4187C231.32 77.8377 225.337 59.1302 212.068 47.8178Z" fill="#FFC70E"/>
<path d="M126.772 60.6209C126.621 63.6072 125.326 65.2679 123.689 66.1735C120.583 67.892 116.247 66.8516 116.247 66.8516C116.344 70.3371 116.257 73.8253 115.989 77.3018C115.542 82.6347 109.634 83.9371 103.345 83.6674C97.0558 83.3977 93.2638 80.8237 93.2561 78.7429C93.2483 76.6621 92.9439 71.4987 92.9439 71.4987C92.9439 71.4987 89.0131 71.4062 86.0381 70.624C84.7895 70.3003 83.7259 69.8534 83.1517 69.2368C74.003 59.1181 81.5023 37.1389 100.844 36.2526C120.186 35.3664 127.207 51.9587 126.772 60.6209Z" fill="white"/>
<path d="M106.071 77.298C105.278 77.7038 104.386 77.8724 103.5 77.7835C102.794 77.7054 102.113 77.4725 101.507 77.1016C100.901 76.7306 100.384 76.2306 99.9933 75.6372C99.1419 74.3747 98.7689 72.8499 98.9413 71.337C98.9487 71.2449 98.9744 71.1552 99.017 71.0731C99.0596 70.9911 99.1181 70.9184 99.1892 70.8593C99.2602 70.8002 99.3424 70.7559 99.4308 70.729C99.5192 70.7021 99.6121 70.6931 99.704 70.7026C99.796 70.7121 99.8851 70.7399 99.9661 70.7843C100.047 70.8288 100.119 70.8889 100.176 70.9613C100.233 71.0337 100.276 71.1168 100.301 71.2058C100.326 71.2948 100.332 71.3879 100.321 71.4795C100.186 72.6629 100.474 73.8559 101.134 74.8473C101.414 75.271 101.784 75.6284 102.216 75.8946C102.649 76.1608 103.134 76.3294 103.639 76.3886C105.724 76.5967 107.627 74.7317 107.878 72.2271C107.897 72.0436 107.988 71.8752 108.131 71.7589C108.274 71.6425 108.458 71.5878 108.641 71.6067C108.824 71.6256 108.993 71.7166 109.109 71.8597C109.226 72.0028 109.28 72.1862 109.261 72.3697C109.181 73.3916 108.848 74.3775 108.29 75.238C107.733 76.0985 106.97 76.8065 106.071 77.298Z" fill="black"/>
<path opacity="0.6" d="M92.9519 71.499C92.9519 71.499 89.0212 71.4065 86.0461 70.6243C86.0461 70.6243 85.1867 64.3589 89.0828 64.9176C92.9789 65.4763 92.9519 71.499 92.9519 71.499Z" fill="#E8398D"/>
<path opacity="0.6" d="M123.696 66.1731C120.59 67.8916 116.255 66.8512 116.255 66.8512C116.255 66.8512 116.085 60.4394 119.943 60.5126C123.8 60.5858 123.696 66.1731 123.696 66.1731Z" fill="#E8398D"/>
<path d="M98.9021 66.3929C98.9021 66.3929 101.6 69.4756 106.085 66.2542C106.085 66.2542 104.313 57.4996 103.114 57.4764C100.42 57.4109 98.9021 66.3929 98.9021 66.3929Z" fill="black"/>
<path d="M86.9399 56.1861C86.9399 56.1861 91.5258 53.562 95.0327 57.7274C95.4928 56.7196 95.5602 55.5763 95.2215 54.5215" stroke="black" stroke-width="4" stroke-miterlimit="10" stroke-linecap="round"/>
<path d="M116.984 55.5043C116.984 55.5043 112.687 52.703 109.064 56.564" stroke="black" stroke-width="4" stroke-miterlimit="10" stroke-linecap="round"/>
<path d="M109.712 87.5909C109.712 87.5909 124.553 88.9318 126.283 88.2459C128.013 87.5601 130.137 87.0707 130.418 88.4463C130.699 89.8219 129.389 89.6023 129.574 90.4963C129.759 91.3902 129.994 92.3535 129.158 92.7466C128.102 93.2436 127.204 91.6946 126.04 91.4827C124.576 91.213 110.575 90.4423 109.812 89.9761C109.049 89.5098 109.157 87.8992 109.712 87.5909Z" fill="#F6F4EF"/>
<path d="M132.783 92.2607C133.897 93.2202 135.735 91.0854 137.142 90.5691C138.548 90.0528 149.535 85.7255 150.321 85.7833C151.108 85.8411 153.019 87.1435 153.956 85.7833C155.112 84.0725 152.973 82.8856 152.441 82.3154C151.832 81.6834 152.314 80.6006 150.799 80.146C149.285 79.6913 149.643 81.7451 148.318 82.3346C146.992 82.9242 136.695 86.6657 135.504 86.843C134.313 87.0202 132.101 86.6965 131.6 87.5674C131.099 88.4382 132.656 89.8216 132.71 90.3109C132.764 90.8003 132.036 91.6095 132.783 92.2607Z" fill="#F6F4EF"/>
<path d="M154.662 80.3658C155.205 80.6702 155.548 83.013 157.236 82.2116C158.361 81.6759 156.893 79.6067 157.795 77.8727C158.697 76.1388 162.319 67.7887 163.14 67.6345C163.961 67.4804 164.782 66.8292 164.35 65.8505C163.918 64.8717 162.585 65.4382 161.525 64.9064C161.067 64.6752 160.3 63.0954 158.982 64.0587C157.899 64.8525 159.367 66.2358 159.205 66.756C158.697 68.5131 155.005 75.8189 154.519 76.6551C153.941 77.657 151.941 77.1291 151.968 78.9671C151.991 80.2464 153.394 79.6414 154.662 80.3658Z" fill="#F6F4EF"/>
<path d="M96.07 120.128C101.08 120.128 103.619 124.278 106.113 124.174H107.23C109.419 123.673 111.593 119.854 115.994 119.577C120.695 119.265 125.89 122.112 123.605 129.21C122.063 134.031 116.383 133.31 112.633 134.112C109.119 134.882 109.015 136.339 107.485 136.828L106.502 136.759C104.513 136.497 104.548 134.878 100.521 134.316C96.4939 133.753 90.5284 134.824 88.5746 130.147C85.7421 123.265 91.0641 120.124 96.07 120.128ZM101.789 126.293C100.895 125.573 96.1394 123.754 95.2877 125.523C94.436 127.291 99.099 131.349 101.727 130.701C104.355 130.054 102.698 127.033 101.789 126.309V126.293ZM116.525 125.7C115.616 123.954 110.063 126.721 110.063 126.721C110.063 126.721 107.631 130.597 110.298 131.137C112.965 131.676 117.45 127.465 116.525 125.715V125.7Z" fill="white"/>
<path d="M103.797 87.6522C103.55 88.234 103.122 90.3495 102.822 91.8022C102.521 93.2549 102.629 95.3626 103.442 96.6689C104.255 97.9751 104.494 104.649 104.533 105.689C104.575 106.922 105.689 108.51 106.236 108.468C107.392 108.379 107.778 105.994 107.778 105.593C107.801 104.002 107.111 97.4781 107.234 96.5995C107.358 95.721 108.39 93.4206 108.124 92.3378C107.569 90.1376 106.876 87.448 106.876 87.448C106.876 87.448 104.24 86.6195 103.797 87.6522Z" fill="white"/>
<path d="M103.056 84.8589C102.983 85.3791 104.764 85.7991 105.45 85.7914C106.606 85.7914 107.627 85.4331 107.538 85.1094C107.357 84.4351 106.575 84.8743 105.38 84.8589C104.186 84.8435 103.13 84.3387 103.056 84.8589Z" fill="#F6F4EF"/>
<path d="M103.318 85.8915C103.156 85.9839 103.241 86.6351 103.526 86.743C104.194 86.858 104.872 86.902 105.55 86.874C106.282 86.8008 107.349 86.8162 107.388 86.5581C107.426 86.2999 107.515 85.7027 107.176 85.7566C106.837 85.8105 105.997 86.0302 105.538 86.061C104.459 86.1265 103.607 85.7335 103.318 85.8915Z" fill="#F6F4EF"/>
<path d="M129.477 127.677C129.477 127.677 127.593 126.984 127.104 127.843C126.614 128.702 128.063 129.222 128.606 130.155C129.15 131.087 127.566 133.049 129.319 133.442C131.073 133.835 131.181 131.766 132.506 131.839C133.832 131.912 148.603 131.662 150.341 132.344C152.079 133.026 152.511 133.195 153.455 132.066C154.399 130.937 153.69 127.65 152.684 127.442C151.679 127.234 150.283 128.213 150.283 128.213C150.283 128.213 131.466 129.107 129.477 127.677Z" fill="white"/>
<path d="M155.983 130.042C155.913 128.563 153.998 127.796 155.077 126.96C156.156 126.123 157.127 127.214 157.809 128.285C158.492 129.356 170.793 129.121 175.386 128.775C175.988 128.23 176.693 127.81 177.459 127.541C178.542 127.245 179.409 128.362 179.321 130.038C179.24 131.58 178.828 133.121 177.718 133.121C176.608 133.121 175.872 132.397 175.471 132.3C175.07 132.204 160.611 132.115 158.515 132.431C157.44 132.597 156.202 134.192 155.251 133.476C154.299 132.759 156.052 131.522 155.983 130.042Z" fill="white"/>
<path d="M178.435 126.386C178.435 126.386 179.448 119.793 179.976 119.835C180.504 119.878 182.477 121.376 182.558 122.559C182.639 123.742 181.132 130.012 180.454 130.266C179.776 130.52 180.751 127.226 178.435 126.386Z" fill="white"/>
<path d="M179.817 118.394C179.755 118.028 179.736 115.735 180.118 115.531C180.499 115.327 181.066 115.727 181.112 116.248C181.158 116.768 180.911 118.602 180.688 118.66C180.464 118.718 179.929 119.064 179.817 118.394Z" fill="white"/>
<path d="M181.594 119.338C181.594 118.953 182.037 116.714 182.449 116.591C182.862 116.468 183.344 116.976 183.282 117.489C183.22 118.001 182.627 119.754 182.396 119.774C182.164 119.793 181.575 120.017 181.594 119.338Z" fill="white"/>
<path d="M182.889 120.71C182.973 120.351 183.833 118.22 184.257 118.178C184.681 118.136 185.058 118.721 184.904 119.218C184.75 119.715 183.825 121.318 183.594 121.291C183.363 121.264 182.738 121.376 182.889 120.71Z" fill="white"/>
<path d="M82.6589 128.96C82.6589 128.96 84.5395 128.262 85.0289 129.122C85.5183 129.981 84.0732 130.505 83.5298 131.434C82.9864 132.362 84.5741 134.324 82.8246 134.721C81.075 135.118 80.9632 133.048 79.6376 133.122C78.3119 133.195 63.5368 132.967 61.8027 133.653C60.0685 134.339 59.633 134.513 58.685 133.38C57.737 132.247 58.4423 128.964 59.4558 128.756C60.4693 128.548 61.8566 129.526 61.8566 129.526C61.8566 129.526 80.6549 130.393 82.6589 128.96Z" fill="white"/>
<path d="M56.1405 131.365C56.206 129.889 58.1213 129.118 57.0384 128.282C55.9555 127.446 54.9882 128.54 54.31 129.612C53.6317 130.683 41.3269 130.475 36.7333 130.132C36.135 129.581 35.4328 129.155 34.6677 128.88C33.5887 128.583 32.7177 129.7 32.8102 131.38C32.895 132.922 33.3112 134.463 34.4211 134.463C35.5309 134.463 36.267 133.739 36.6678 133.638C37.0685 133.538 51.5237 133.434 53.624 133.746C54.703 133.908 55.9362 135.503 56.8958 134.787C57.8554 134.07 56.0672 132.845 56.1405 131.365Z" fill="white"/>
<path d="M33.682 127.722C33.682 127.722 32.6608 121.133 32.1405 121.172C31.6203 121.21 29.6395 122.713 29.5585 123.896C29.4776 125.079 30.996 131.348 31.6781 131.603C32.3602 131.857 31.3698 128.586 33.682 127.722Z" fill="white"/>
<path d="M32.2869 119.753C32.3486 119.391 32.364 117.091 31.9825 116.887C31.601 116.682 31.0345 117.091 30.9882 117.611C30.942 118.131 31.1925 119.962 31.4198 120.019C31.6472 120.077 32.1752 120.42 32.2869 119.753Z" fill="white"/>
<path d="M30.5146 120.703C30.5146 120.317 30.0675 118.078 29.6552 117.951C29.2429 117.824 28.7611 118.337 28.819 118.857C28.8768 119.377 29.4779 121.119 29.713 121.138C29.9481 121.157 30.5338 121.377 30.5146 120.703Z" fill="white"/>
<path d="M29.219 122.074C29.1343 121.712 28.271 119.589 27.8471 119.546C27.4232 119.504 27.0456 120.094 27.1997 120.606C27.3539 121.118 28.2826 122.706 28.5138 122.675C28.745 122.644 29.3693 122.741 29.219 122.074Z" fill="white"/>
<path d="M161.659 62.5121C163.177 63.0323 165.547 63.225 166.638 61.884C167.728 60.5431 169.305 55.0714 168.291 54.2275C167.278 53.3837 163.929 53.8422 163.135 53.584C162.341 53.3259 159.971 51.9733 158.865 53.6572C157.759 55.3411 159.05 61.6104 161.659 62.5121Z" fill="#E5E4E4"/>
<path d="M156.942 51.283C157.223 51.649 158.63 51.5797 158.868 50.493C158.988 49.9651 157.373 41.8154 156.556 41.3916C155.739 40.9677 154.078 41.3916 153.882 42.4011C153.654 43.6149 156.383 50.5547 156.942 51.283Z" fill="#F6F4EF"/>
<path d="M162.572 50.9136C162.761 51.3683 164.244 51.6843 164.811 50.6439C165.085 50.1314 165.724 41.1956 164.996 40.5136C164.268 39.8316 162.422 39.8162 161.936 40.8065C161.335 41.9971 162.202 49.9927 162.572 50.9136Z" fill="#F6F4EF"/>
<path d="M168.053 50.0892C168.265 49.8156 169.298 49.8541 169.467 50.6633C169.548 51.0487 168.276 57.1754 167.671 57.5068C167.066 57.8382 165.86 57.5068 165.725 56.7785C165.559 55.8691 167.64 50.6248 168.053 50.0892Z" fill="#F6F4EF"/>
<path d="M155.566 54.9327C155.135 55.0714 154.946 55.8844 155.239 56.4971C155.532 57.1098 159.836 59.364 160.31 59.1944C161.12 58.9016 161.594 57.6993 160.696 57.0828C159.281 56.1041 156.171 54.74 155.566 54.9327Z" fill="#F6F4EF"/>
<path d="M96.6905 109.072C98.3861 108.44 104.756 107.5 105.939 107.342C105.735 106.896 105.585 106.428 105.492 105.947L104.282 106.332C104.282 106.332 97.4728 106.764 93.2491 108.259L92.6672 108.44C93.994 108.733 95.3376 108.944 96.6905 109.072V109.072Z" fill="white"/>
<path d="M106.451 106.133C106.388 106.598 106.153 107.023 105.792 107.323C105.792 107.323 112.49 108.46 114.787 108.707V108.772C116.182 108.533 118.159 108.264 119.207 107.898L118.579 107.751C114.679 106.549 107.465 106.164 106.451 106.133Z" fill="white"/>
<path d="M93.1988 108.421C92.2199 108.136 91.5186 107.75 91.3606 107.234C90.4049 104.051 100.047 103.947 100.047 103.947C98.4244 103.639 96.9985 103.331 94.8443 102.907L94.4589 102.968C94.4589 102.968 88.3547 103.785 88.2468 107.681C88.2121 108.764 88.9405 109.631 90.1004 110.297C90.9739 110.78 91.9103 111.14 92.8828 111.365C96.7596 112.351 101.808 112.135 102.706 110.979C103.604 109.823 100.062 109.527 96.6748 109.053C95.5019 108.93 94.3399 108.719 93.1988 108.421V108.421Z" fill="white"/>
<path d="M100.031 115.526C96.6786 114.964 92.3817 114.293 92.5783 111.357L92.6284 111.241C91.5346 110.911 90.4851 110.449 89.503 109.866L89.4375 109.981C86.8633 114.698 94.0196 118.293 100.001 118.239C103.295 118.231 103.365 116.081 100.031 115.526Z" fill="white"/>
<path d="M113.076 117.446C118.787 117.492 125.381 113.897 122.575 109.146L122.491 109.042C121.598 109.619 120.634 110.078 119.624 110.406L119.681 110.525C120.067 113.481 116.013 114.151 112.849 114.71C109.685 115.269 109.901 117.43 113.076 117.446Z" fill="white"/>
<g style="mix-blend-mode:multiply" opacity="0.2">
<path d="M92.5861 111.742C92.5776 111.614 92.5776 111.485 92.5861 111.357L92.6362 111.241C91.5424 110.911 90.4929 110.449 89.5109 109.866L89.4878 109.908C90.0851 111.045 91.2605 111.446 92.5861 111.742Z" fill="white"/>
</g>
<g style="mix-blend-mode:multiply" opacity="0.2">
<path d="M122.71 109.396C122.664 109.311 122.625 109.231 122.575 109.146L122.49 109.042C121.598 109.619 120.634 110.078 119.623 110.406L119.681 110.525C119.727 110.841 119.714 111.162 119.642 111.473C120.867 111.141 121.946 110.41 122.71 109.396Z" fill="white"/>
</g>
<path d="M120.425 106.645C120.29 107.169 119.604 107.586 118.637 107.898C117.377 108.288 116.088 108.58 114.783 108.772C111.538 109.331 108.293 109.759 109.207 110.861C110.12 111.963 115.207 111.978 119.053 110.838C119.999 110.573 120.906 110.184 121.751 109.682C122.907 108.965 123.6 108.071 123.527 106.984C123.246 103.096 117.115 102.53 117.115 102.53L116.729 102.461C114.876 103.154 112.247 102.827 110.621 102.981L111.97 103.621C112.717 103.578 121.234 103.551 120.425 106.645Z" fill="white"/>
<g style="mix-blend-mode:multiply" opacity="0.2">
<path d="M100.046 103.947C98.4238 103.639 96.998 103.331 94.8437 102.907H94.7705C95.5632 103.396 96.4054 103.801 97.2831 104.113C98.8169 103.963 100.046 103.947 100.046 103.947Z" fill="white"/>
</g>
<path d="M96.6892 109.072C95.5106 108.943 94.3434 108.726 93.1978 108.42C92.219 108.135 91.5176 107.75 91.3596 107.234C90.7507 105.191 94.5158 104.421 97.302 104.124C96.4242 103.812 95.582 103.407 94.7894 102.918L94.4926 102.968C94.4926 102.968 88.3884 103.785 88.2805 107.681C88.2458 108.763 88.9741 109.63 90.1341 110.297C91.0076 110.78 91.944 111.139 92.9165 111.364C96.7933 112.351 101.842 112.135 102.74 110.979C103.637 109.823 100.077 109.538 96.6892 109.072Z" fill="white"/>
<g style="mix-blend-mode:multiply" opacity="0.2">
<path d="M116.891 102.468L116.776 102.445C114.922 103.138 112.294 102.811 110.668 102.965L112.017 103.604C113.159 103.588 114.302 103.641 115.439 103.762C115.979 103.398 116.467 102.963 116.891 102.468Z" fill="white"/>
</g>
<path d="M123.558 106.968C123.277 103.08 117.146 102.514 117.146 102.514L116.892 102.468C116.468 102.962 115.979 103.398 115.439 103.762C117.986 104.04 120.919 104.768 120.429 106.645C120.294 107.169 119.608 107.585 118.641 107.897C117.381 108.287 116.093 108.58 114.787 108.772C111.543 109.33 108.298 109.758 109.211 110.86C110.124 111.962 115.211 111.977 119.057 110.837C120.003 110.572 120.91 110.183 121.755 109.681C122.93 108.956 123.632 108.063 123.558 106.968Z" fill="white"/>
<path d="M88.0542 97.871C87.8153 99.7976 90.9869 101.678 94.5053 102.834C96.2933 103.446 98.1538 103.82 100.039 103.948C101.758 104.048 103.049 103.77 103.326 103.004C104.159 100.653 97.2799 102.233 93.4147 98.3372C90.9368 95.8519 104.317 94.1718 104.317 94.1718L104.113 92.4263C104.113 92.4263 88.5552 93.7672 88.0542 97.871Z" fill="white"/>
<path d="M107.368 92.2795L107.237 94.1137C107.237 94.1137 120.386 95.2697 118.028 97.8398C114.309 101.905 107.368 100.587 108.297 102.903C108.609 103.674 109.931 103.882 111.665 103.716C113.528 103.498 115.355 103.049 117.107 102.379C120.575 101.096 123.658 99.0845 123.361 97.1578C122.691 93.0772 107.368 92.2795 107.368 92.2795Z" fill="white"/>
<path d="M104.964 119.064C104.293 119.415 104.601 121.569 104.883 122.27C105.149 122.902 107.384 122.617 107.657 122.212C107.838 121.985 108.239 119.426 107.549 118.96C107.549 118.964 105.48 118.791 104.964 119.064Z" fill="white"/>
<path d="M104.867 114.201C104.193 114.587 104.505 116.721 104.786 117.419C105.052 118.039 107.287 117.754 107.557 117.365C107.738 117.118 108.143 114.579 107.453 114.113C107.453 114.113 105.395 113.939 104.867 114.201Z" fill="white"/>
<path d="M104.77 109.338C104.096 109.696 104.404 111.85 104.686 112.551C104.952 113.187 107.187 112.902 107.46 112.497C107.641 112.266 108.046 109.712 107.352 109.245C107.352 109.245 105.283 109.072 104.77 109.338Z" fill="white"/>
<path d="M48.3608 63.2643C46.8501 63.7883 44.4763 63.9617 43.3895 62.6401C42.3028 61.3184 40.7228 55.8274 41.7363 54.9797C42.7498 54.132 46.0948 54.5944 46.8925 54.3362C47.6902 54.078 50.0525 52.7255 51.1586 54.4094C52.2646 56.0933 50.9774 62.3665 48.3608 63.2643Z" fill="#E5E4E4"/>
<path d="M53.088 52.0361C52.8067 52.4214 51.3963 52.3328 51.1612 51.2654C51.0456 50.7414 52.6564 42.5878 53.4734 42.164C54.2904 41.7401 55.9513 42.164 56.171 43.1774C56.3714 44.3719 53.6468 51.3117 53.088 52.0361Z" fill="#F6F4EF"/>
<path d="M47.4579 51.6704C47.2652 52.1212 45.7816 52.441 45.2151 51.3968C44.9453 50.8881 44.3017 41.9524 45.0301 41.2703C45.7584 40.5883 47.6044 40.5729 48.0899 41.5593C48.6911 42.7693 47.824 50.7494 47.4579 51.6704Z" fill="#F6F4EF"/>
<path d="M41.9743 50.8308C41.7662 50.5534 40.7296 50.5958 40.5639 51.4011C40.4791 51.7864 41.7508 57.917 42.3558 58.2445C42.9609 58.5721 44.1709 58.2677 44.3058 57.5201C44.4676 56.6069 42.3905 51.3818 41.9743 50.8308Z" fill="#F6F4EF"/>
<path d="M54.4639 55.6859C54.8917 55.8246 55.0843 56.6415 54.7876 57.2503C54.4909 57.8592 50.194 60.121 49.72 59.9477C48.9069 59.6548 48.4329 58.4487 49.3346 57.8322C50.7489 56.8612 53.855 55.4855 54.4639 55.6859Z" fill="#F6F4EF"/>
<path d="M100.323 87.4897C100.323 87.4897 85.483 88.8267 83.7526 88.1409C82.0223 87.455 79.899 86.9849 79.6176 88.3412C79.3363 89.6976 80.6466 89.478 80.4577 90.3912C80.2689 91.3044 80.0377 92.2485 80.8778 92.6415C81.9299 93.1386 82.8316 91.5896 83.9916 91.3776C85.4598 91.1079 99.4564 90.3372 100.219 89.871C100.982 89.4047 100.878 87.7941 100.323 87.4897Z" fill="#F6F4EF"/>
<path d="M77.2625 92.1557C76.1488 93.119 74.3106 90.9997 72.904 90.4641C71.4974 89.9285 60.5066 85.6244 59.7243 85.6783C58.942 85.7323 57.0268 87.0385 56.0903 85.659C54.9342 83.9482 57.073 82.7652 57.6048 82.1911C58.2137 81.5591 57.7281 80.4764 59.2465 80.0217C60.7648 79.567 60.4026 81.6208 61.7283 82.2104C63.0539 82.7999 73.351 86.5415 74.5379 86.7187C75.7249 86.896 77.9408 86.553 78.4533 87.4431C78.9658 88.3332 77.4012 89.6973 77.3473 90.1867C77.2933 90.676 77.9947 91.5045 77.2625 92.1557Z" fill="#F6F4EF"/>
<path d="M55.3707 80.2608C54.8312 80.5652 54.4882 82.908 52.8003 82.1065C51.6712 81.5709 53.1395 79.5017 52.2415 77.7677C51.3436 76.0337 47.7173 67.6836 46.8926 67.5334C46.0679 67.3831 45.2548 66.7242 45.6826 65.7454C46.1103 64.7667 47.4476 65.337 48.5112 64.8052C48.9698 64.5702 49.7366 62.9903 51.0546 63.9537C52.1375 64.7474 50.6692 66.1308 50.8311 66.651C51.3398 68.4081 55.0316 75.7139 55.5172 76.5501C56.0914 77.5519 58.0953 77.0279 58.0645 78.862C58.0452 80.1452 56.6425 79.5364 55.3707 80.2608Z" fill="#F6F4EF"/>
<path d="M120.713 52.9486L119.534 52.9909C119.243 52.3319 118.823 51.7382 118.297 51.2454C117.591 50.5889 116.711 50.1501 115.761 49.9815C114.365 49.842 112.96 49.8201 111.561 49.916V49.916L93.5487 50.5903C92.035 50.5912 90.5241 50.7201 89.0322 50.9757C88.0964 51.2109 87.2499 51.7145 86.5966 52.4245C86.109 52.958 85.7341 53.5845 85.4945 54.2664L84.3153 54.3088C84.1665 54.3143 84.0202 54.3491 83.8849 54.4112C83.7496 54.4733 83.6278 54.5614 83.5265 54.6705C83.322 54.891 83.2134 55.1836 83.2247 55.484C83.2359 55.7845 83.3661 56.0682 83.5865 56.2727C83.8069 56.4772 84.0996 56.5857 84.4 56.5745L85.1091 56.5475C85.1091 56.694 85.1091 56.8442 85.1091 56.9984C85.2941 61.8843 88.6738 64.3504 91.7375 64.5739C92.0558 64.5912 92.3748 64.5912 92.6932 64.5739C94.7656 64.502 96.7415 63.6805 98.254 62.262C99.441 61.1368 100.797 59.1793 101.248 55.9349L103.946 55.8308C104.636 59.0368 106.135 60.8863 107.414 61.9152C109.026 63.2229 111.059 63.8982 113.133 63.8148C113.452 63.8044 113.77 63.7748 114.085 63.7262C117.122 63.2754 120.309 60.5588 120.128 55.6728C120.128 55.5187 120.128 55.3723 120.097 55.2259L120.81 55.2143C121.11 55.203 121.394 55.0729 121.598 54.8525C121.803 54.6321 121.911 54.3395 121.9 54.039C121.889 53.7386 121.759 53.4549 121.538 53.2504C121.318 53.0459 121.025 52.9373 120.725 52.9486H120.713ZM103.626 53.5921L101.399 53.673C101.399 53.542 101.399 53.4071 101.399 53.2876C101.396 53.0487 101.36 52.8113 101.291 52.5825L103.657 52.4939C103.606 52.7266 103.588 52.9652 103.603 53.2029C103.607 53.3262 103.615 53.4572 103.626 53.5921Z" fill="#010101"/>
</svg>
