<svg width="410" height="411" viewBox="0 0 410 411" fill="none" xmlns="http://www.w3.org/2000/svg">
<mask id="mask0" mask-type="alpha" maskUnits="userSpaceOnUse" x="-1" y="0" width="411" height="411">
<rect x="-1" width="411" height="411" fill="#C4C4C4"/>
</mask>
<g mask="url(#mask0)">
</g>
<g clip-path="url(#clip0)">
<path d="M234.049 131.111L8.17618 239.06C5.81003 240.191 4.80688 243.019 5.93363 245.377L69.246 377.851C70.373 380.209 73.2034 381.205 75.5695 380.074L301.443 272.124C303.809 270.993 304.812 268.165 303.685 265.808L240.373 133.334C239.245 130.975 236.415 129.98 234.049 131.111Z" fill="#F7434C"/>
<path d="M234.049 131.111L8.17618 239.06C5.81003 240.191 4.80688 243.019 5.93363 245.377L14.0958 262.455L248.535 150.412L240.373 133.333C239.245 130.975 236.415 129.98 234.049 131.111Z" fill="#DB2E37"/>
<path d="M142.993 174.629L99.2311 195.543C96.8649 196.674 95.8618 199.502 96.9885 201.86L160.301 334.334C161.428 336.692 164.258 337.688 166.624 336.557L210.386 315.642C212.752 314.512 213.755 311.683 212.629 309.326L149.317 176.852C148.189 174.493 145.358 173.498 142.993 174.629Z" fill="#FFDB57"/>
<path d="M142.993 174.629L99.2311 195.543C96.8649 196.674 95.8618 199.502 96.9885 201.86L105.107 218.847L157.435 193.838L149.316 176.851C148.189 174.493 145.358 173.498 142.993 174.629Z" fill="#F5BA3D"/>
<path d="M188.01 56.2276C178.595 47.323 166.875 39.8326 156.658 36.1898C152.91 34.8538 148.883 35.1924 145.042 37.1301C132.325 43.5744 119.059 69.678 105.612 114.715C105.276 115.839 105.37 117.047 105.875 118.105L116.668 140.688C117.795 143.047 120.626 144.042 122.992 142.911L188.876 111.424C203.556 104.408 206.212 94.3926 205.855 87.2265C205.381 77.6727 199.043 66.6634 188.01 56.2276Z" fill="#FFDB57"/>
<path d="M194.015 62.496C193.686 62.1149 193.298 61.7886 192.865 61.5302C181.739 54.8732 169.507 65.1995 161.206 75.0338C137.087 103.605 133.523 128.787 133.383 129.844C133.155 131.567 133.889 133.272 135.296 134.289C136.703 135.307 138.556 135.473 140.127 134.723L188.876 111.424C198.217 106.96 203.778 100.791 205.405 93.0889C207.338 83.9388 203.399 73.3598 194.015 62.496Z" fill="#EF9325"/>
<path d="M76.0899 128.826C32.5996 111 3.95522 104.927 -9.04705 110.774C-12.9779 112.55 -15.7606 115.466 -17.0752 119.222C-20.6578 129.459 -22.1911 143.284 -21.1754 156.203C-19.9852 171.343 -15.4005 183.19 -8.26555 189.562C-2.91352 194.341 6.54738 198.565 21.228 191.548L87.112 160.061C89.4782 158.93 90.4813 156.102 89.3546 153.745L78.5611 131.16C78.0563 130.103 77.1763 129.27 76.0899 128.826Z" fill="#FFDB57"/>
<path d="M70.4203 159.936C69.5093 159.381 47.676 146.336 10.2951 147.158C-2.57262 147.441 -18.2894 150.474 -20.0991 163.31C-20.169 163.81 -20.1593 164.316 -20.0693 164.812C-17.5114 178.938 -11.7529 188.648 -3.41926 192.891C3.59534 196.463 11.8887 196.01 21.2304 191.546L69.9797 168.247C71.5501 167.497 72.5852 165.95 72.6768 164.217C72.7687 162.483 71.9031 160.841 70.4203 159.936Z" fill="#EF9325"/>
<path d="M106.103 107.568L70.2228 124.716C67.8566 125.847 66.8534 128.675 67.9802 131.033L80.7907 157.837C81.9177 160.195 84.748 161.191 87.1142 160.06L122.994 142.912C125.36 141.781 126.364 138.953 125.237 136.595L112.426 109.791C111.299 107.433 108.469 106.438 106.103 107.568Z" fill="#F5BA3D"/>
<path d="M232.325 80.1823L-30.3744 205.732C-32.7406 206.863 -33.7437 209.691 -32.617 212.048L-12.4816 254.179C-11.3546 256.538 -8.52424 257.533 -6.15808 256.402L256.541 130.852C258.907 129.722 259.91 126.894 258.784 124.536L238.648 82.4048C237.521 80.0467 234.691 79.0515 232.325 80.1823Z" fill="#F7434C"/>
<path d="M133.873 127.232L68.0723 158.679L92.2892 209.35L158.089 177.903L133.873 127.232Z" fill="#FFDB57"/>
</g>
<defs>
<clipPath id="clip0">
<rect width="300.653" height="299.702" fill="white" transform="translate(-72 129.644) rotate(-25.5441)"/>
</clipPath>
</defs>
</svg>
