<svg width="411" height="474" viewBox="0 0 411 474" fill="none" xmlns="http://www.w3.org/2000/svg">
<mask id="mask0" mask-type="alpha" maskUnits="userSpaceOnUse" x="-1" y="55" width="411" height="411">
<rect x="-1" y="55" width="411" height="411" fill="#C4C4C4"/>
</mask>
<g mask="url(#mask0)">
</g>
<g clip-path="url(#clip0)">
<path d="M303.297 105.89L270.295 175.408L300.018 189.518L333.019 120C340.082 105.122 357.908 98.8048 372.833 105.89C387.758 112.975 394.132 130.781 387.069 145.659L354.068 215.177L383.791 229.286L416.792 159.769C431.623 128.527 418.239 91.1392 386.898 76.2614C355.555 61.3823 318.127 74.6491 303.297 105.89V105.89Z" fill="#838383"/>
<path d="M416.798 159.774L383.798 229.289L370.054 222.764L403.054 153.249C416.784 124.325 406.332 90.1338 379.837 73.4184C382.219 74.2105 384.582 75.1582 386.909 76.2629C418.252 91.1419 431.631 128.528 416.798 159.774Z" fill="#5A5A5A"/>
<path d="M328.992 441.784L140.306 352.212C128.677 346.691 123.71 332.816 129.213 321.225L207.832 155.612C213.336 144.018 227.226 139.097 238.854 144.617L427.54 234.19C439.168 239.71 444.137 253.583 438.633 265.177L360.013 430.79C354.511 442.381 340.62 447.304 328.992 441.784Z" fill="#FFD86E"/>
<path d="M438.637 265.175L360.016 430.793C354.514 442.382 340.625 447.309 328.994 441.788L308.467 432.043C320.098 437.564 333.987 432.638 339.489 421.049L418.11 255.431C423.612 243.842 418.648 229.965 407.018 224.444L427.545 234.188C439.175 239.71 444.139 253.586 438.637 265.175V265.175Z" fill="#FFB509"/>
<path d="M421.432 301.41L190.632 191.845L207.832 155.612C213.336 144.018 227.226 139.097 238.854 144.617L427.54 234.19C439.168 239.71 444.137 253.583 438.633 265.177L421.432 301.41Z" fill="#80E0DC"/>
<path d="M438.637 265.175L421.437 301.408L400.91 291.664L418.11 255.431C423.612 243.842 418.648 229.965 407.018 224.444L427.545 234.188C439.175 239.71 444.139 253.586 438.637 265.175Z" fill="#00A8B0"/>
<path d="M299.98 311.247C305.588 299.435 299.805 285.143 287.051 280.726C277.142 277.293 266.393 281.143 260.946 290.063C256.71 296.997 256.745 305.109 260.064 311.671C261.078 313.679 261.064 316.047 260.101 318.076L254.604 329.655C252.041 335.056 254.354 341.518 259.774 344.091C265.192 346.663 271.662 344.37 274.226 338.97L279.724 327.388C280.699 325.332 282.573 323.85 284.801 323.351C291.228 321.91 296.943 317.646 299.98 311.247Z" fill="#838383"/>
<path d="M299.974 311.243C296.936 317.642 291.219 321.909 284.793 323.344C282.567 323.844 280.696 325.333 279.72 327.389L274.226 338.963C272.941 341.67 270.682 343.59 268.062 344.52C265.448 345.441 262.477 345.374 259.767 344.087C256.993 342.771 255.037 340.435 254.127 337.746C255.926 338.03 257.746 337.845 259.414 337.254C262.034 336.327 264.291 334.406 265.576 331.699L271.072 320.123C272.047 318.067 273.925 316.583 276.15 316.084C282.577 314.649 288.293 310.382 291.332 303.98C294.883 296.5 293.862 288.006 289.388 281.672C300.488 286.942 305.227 300.178 299.974 311.243Z" fill="#5A5A5A"/>
<path d="M285.814 201.967C282.727 208.469 274.938 211.23 268.415 208.134C261.893 205.037 259.107 197.256 262.194 190.755C265.28 184.253 273.07 181.492 279.593 184.588C286.115 187.685 288.9 195.466 285.814 201.967Z" fill="#FFD86E"/>
<path d="M331.425 223.62C328.339 230.122 320.549 232.882 314.027 229.786C307.504 226.69 304.719 218.909 307.805 212.407C310.892 205.905 318.682 203.144 325.204 206.241C331.726 209.337 334.512 217.118 331.425 223.62Z" fill="#FFD86E"/>
<path d="M377.037 245.273C373.95 251.774 366.161 254.535 359.638 251.439C353.116 248.343 350.33 240.562 353.417 234.06C356.503 227.558 364.293 224.797 370.816 227.894C377.338 230.99 380.123 238.771 377.037 245.273Z" fill="#FFD86E"/>
<path d="M285.807 201.965C282.72 208.469 274.927 211.229 268.405 208.133C263.815 205.953 261.075 201.447 260.939 196.708C261.827 197.493 262.839 198.162 263.963 198.696C270.481 201.79 278.273 199.03 281.361 192.526C282.271 190.607 282.668 188.568 282.61 186.573C286.897 190.323 288.362 196.584 285.807 201.965Z" fill="#FFB509"/>
<path d="M331.427 223.62C328.339 230.125 320.547 232.884 314.024 229.788C309.434 227.609 306.694 223.103 306.551 218.36C307.439 219.144 308.451 219.814 309.577 220.349C316.1 223.445 323.89 220.684 326.977 214.18C327.888 212.261 328.29 210.23 328.231 208.238C332.514 211.984 333.981 218.239 331.427 223.62Z" fill="#FFB509"/>
<path d="M377.036 245.273C373.948 251.777 366.163 254.54 359.641 251.444C355.043 249.261 352.303 244.755 352.164 240.005C353.048 240.797 354.067 241.47 355.194 242.004C361.717 245.101 369.507 242.34 372.594 235.836C373.506 233.915 373.904 231.879 373.844 229.883C378.126 233.631 379.591 239.892 377.036 245.273V245.273Z" fill="#FFB509"/>
</g>
<defs>
<clipPath id="clip0">
<rect width="356.17" height="355.043" fill="white" transform="translate(226.26) rotate(25.3945)"/>
</clipPath>
</defs>
</svg>
