<svg width="411" height="411" viewBox="0 0 411 411" fill="none" xmlns="http://www.w3.org/2000/svg">
<mask id="mask0" mask-type="alpha" maskUnits="userSpaceOnUse" x="0" y="0" width="411" height="411">
<rect width="411" height="411" fill="#C4C4C4"/>
</mask>
<g mask="url(#mask0)">
</g>
<g clip-path="url(#clip0)">
<path d="M299.679 105.896L460.405 167.126C465.433 153.524 459.361 140.121 447.333 135.539L286.607 74.3091C298.635 78.8911 304.707 92.2936 299.679 105.896Z" fill="#E2D9C5"/>
<path d="M417.008 149.099C421.622 136.987 435.181 130.91 447.292 135.524L286.566 74.2933C274.455 69.6793 260.896 75.757 256.282 87.8686L187.653 268.016L326.449 320.892C338.561 325.506 352.119 319.428 356.733 307.317L417.008 149.099Z" fill="#F2EBDA"/>
<path d="M420.662 125.379C408.55 120.765 394.992 126.842 390.378 138.954L330.103 297.172C325.489 309.284 311.93 315.362 299.819 310.748L326.446 320.892C338.558 325.506 352.116 319.428 356.73 307.316L417.005 149.098C421.62 136.986 435.178 130.909 447.289 135.523L420.662 125.379V125.379Z" fill="#E2D9C5"/>
<path d="M312.884 289.118L152.158 227.888C147.13 241.49 153.202 254.893 165.23 259.475L325.956 320.705C313.928 316.122 307.856 302.72 312.884 289.118Z" fill="#E2D9C5"/>
<path d="M313.962 241.945C323.822 229.629 333.343 216.842 347.104 209.547C377.163 193.613 421.832 202.584 451.993 214.973C439.464 219.212 428.124 224.006 414.527 230.757C399.283 238.327 369.81 244.899 357.148 244.067C337.427 242.772 328.915 240.568 313.962 241.945Z" fill="#DDA064"/>
<path d="M313.961 241.946C323.822 229.631 421.832 202.586 451.992 214.974C439.463 219.213 428.124 224.008 414.526 230.759C399.282 238.329 369.809 244.9 357.147 244.069C337.427 242.773 328.914 240.569 313.961 241.946Z" fill="#B57947"/>
<path d="M391.666 159.897C392.485 157.749 391.407 155.345 389.259 154.527L306.471 122.988C304.323 122.17 301.919 123.247 301.1 125.395C300.282 127.543 301.36 129.948 303.508 130.766L386.295 162.305C388.443 163.123 390.848 162.045 391.666 159.897Z" fill="#C8C2B2"/>
<path d="M272.302 118.878L285.416 123.873C287.564 124.692 289.968 123.614 290.786 121.466C291.604 119.318 290.527 116.914 288.379 116.095L275.266 111.1C273.118 110.281 270.713 111.359 269.895 113.507C269.077 115.655 270.154 118.059 272.302 118.878Z" fill="#C8C2B2"/>
<path d="M229.853 230.306C227.705 229.488 225.3 230.566 224.482 232.714C223.664 234.862 224.742 237.266 226.89 238.084L267.567 253.581C269.715 254.399 272.119 253.321 272.937 251.173C273.756 249.025 272.678 246.621 270.53 245.803L229.853 230.306Z" fill="#C8C2B2"/>
<path d="M304.396 217.655C305.215 215.506 304.137 213.102 301.989 212.284L244.99 190.57C242.843 189.752 240.438 190.829 239.62 192.977C238.801 195.126 239.879 197.53 242.027 198.348L299.026 220.062C301.173 220.88 303.578 219.803 304.396 217.655Z" fill="#C8C2B2"/>
<path d="M347.279 188.489C348.098 186.34 347.02 183.936 344.872 183.118L260.128 150.834C257.98 150.016 255.576 151.094 254.758 153.242C253.939 155.389 255.017 157.794 257.165 158.612L341.909 190.896C344.057 191.715 346.461 190.637 347.279 188.489Z" fill="#C8C2B2"/>
<path d="M376.166 256.304C374.018 255.485 371.614 256.563 370.795 258.711L352.842 305.836C349.053 315.785 337.877 320.794 327.929 317.004L327.44 316.818C317.268 312.943 312.69 301.655 316.79 290.563C317.581 288.422 316.501 286.043 314.368 285.23L201.874 242.375L260.17 89.3515C263.96 79.4033 275.136 74.3939 285.083 78.1834L427.355 132.384C427.197 132.457 427.042 132.538 426.885 132.614C426.694 132.707 426.502 132.798 426.314 132.895C426.114 132.997 425.917 133.106 425.72 133.213C425.531 133.316 425.341 133.417 425.154 133.525C424.961 133.636 424.771 133.754 424.58 133.87C424.395 133.982 424.209 134.092 424.026 134.209C423.839 134.329 423.656 134.454 423.472 134.578C423.291 134.701 423.108 134.821 422.93 134.947C422.75 135.075 422.574 135.208 422.397 135.341C422.22 135.472 422.043 135.602 421.87 135.738C421.695 135.874 421.526 136.017 421.355 136.158C421.185 136.297 421.013 136.435 420.845 136.58C420.678 136.724 420.516 136.876 420.351 137.025C420.187 137.174 420.021 137.32 419.861 137.472C419.7 137.626 419.545 137.786 419.387 137.943C419.23 138.099 419.071 138.254 418.918 138.414C418.763 138.577 418.614 138.745 418.463 138.912C418.314 139.076 418.163 139.237 418.018 139.405C417.868 139.577 417.726 139.756 417.581 139.933C417.441 140.103 417.299 140.269 417.163 140.443C417.02 140.626 416.884 140.815 416.745 141.003C416.615 141.178 416.482 141.349 416.356 141.528C416.218 141.725 416.087 141.928 415.953 142.128C415.835 142.305 415.713 142.478 415.6 142.658C415.466 142.869 415.341 143.086 415.213 143.301C415.107 143.479 414.997 143.653 414.895 143.834C414.764 144.066 414.642 144.305 414.517 144.541C414.427 144.712 414.332 144.879 414.245 145.053C414.111 145.32 413.987 145.594 413.861 145.867C413.792 146.017 413.717 146.164 413.651 146.315C413.463 146.743 413.284 147.177 413.116 147.619L412.619 148.924L399.966 182.136C399.148 184.284 400.226 186.688 402.374 187.507C404.522 188.325 406.926 187.247 407.744 185.099L418.915 155.776L458.921 171.017C459.959 171.412 461.112 171.376 462.123 170.917C463.135 170.457 463.921 169.613 464.305 168.571C470.035 153.07 463.374 137.198 448.77 131.635L288.044 70.4048C273.808 64.9812 257.813 72.1514 252.389 86.3881L194.094 239.411L153.642 224C152.604 223.605 151.45 223.64 150.439 224.1C149.427 224.559 148.641 225.404 148.257 226.446C142.528 241.946 149.189 257.818 163.751 263.366L324.477 324.596L324.966 324.782C339.203 330.206 355.197 323.036 360.621 308.799L378.574 261.674C379.392 259.526 378.314 257.122 376.166 256.304ZM422.109 147.992C422.172 147.88 422.238 147.771 422.303 147.661C422.395 147.506 422.486 147.351 422.582 147.198C422.654 147.083 422.73 146.969 422.804 146.855C422.897 146.714 422.991 146.573 423.087 146.434C423.168 146.318 423.251 146.203 423.334 146.089C423.43 145.958 423.526 145.828 423.624 145.701C423.713 145.585 423.803 145.471 423.894 145.358C423.991 145.237 424.09 145.118 424.19 145C424.287 144.885 424.385 144.771 424.484 144.66C424.582 144.549 424.682 144.441 424.782 144.333C424.888 144.219 424.994 144.105 425.102 143.994C425.199 143.895 425.298 143.799 425.396 143.702C425.513 143.588 425.629 143.473 425.748 143.362C425.836 143.279 425.928 143.2 426.018 143.119C426.151 142.999 426.284 142.879 426.421 142.763C426.473 142.718 426.528 142.676 426.582 142.632C427.183 142.133 427.811 141.669 428.465 141.249C428.471 141.244 428.477 141.241 428.483 141.237C428.694 141.102 428.907 140.973 429.122 140.846C429.157 140.826 429.19 140.804 429.225 140.784C429.434 140.662 429.647 140.546 429.861 140.432C429.9 140.411 429.94 140.389 429.98 140.368C430.196 140.255 430.415 140.147 430.636 140.042C430.672 140.025 430.708 140.007 430.745 139.99C430.973 139.883 431.203 139.781 431.435 139.683C431.461 139.672 431.487 139.661 431.514 139.65C431.758 139.548 432.004 139.451 432.252 139.359C432.261 139.356 432.269 139.353 432.278 139.35C435.449 138.183 438.938 137.836 442.402 138.466C442.403 138.466 442.405 138.467 442.407 138.467C442.691 138.519 442.975 138.577 443.258 138.642C443.275 138.646 443.291 138.651 443.308 138.655C443.578 138.717 443.848 138.785 444.117 138.86C444.157 138.871 444.198 138.884 444.239 138.896C444.485 138.966 444.73 139.04 444.975 139.12C445.116 139.166 445.256 139.219 445.398 139.268C445.549 139.322 445.702 139.372 445.853 139.43C454.778 142.83 459.397 151.939 457.624 161.615L422.07 148.07C422.082 148.044 422.095 148.018 422.109 147.992ZM166.713 255.587C157.788 252.187 153.169 243.079 154.942 233.403L195.021 248.671L307.787 291.631C307.687 292.054 307.597 292.476 307.515 292.898C307.488 293.039 307.466 293.18 307.441 293.322C307.39 293.602 307.34 293.883 307.297 294.162C307.271 294.329 307.251 294.496 307.228 294.663C307.193 294.916 307.159 295.17 307.131 295.422C307.111 295.599 307.095 295.776 307.079 295.952C307.056 296.194 307.034 296.435 307.017 296.676C307.004 296.857 306.994 297.038 306.985 297.218C306.972 297.454 306.962 297.69 306.955 297.925C306.949 298.107 306.945 298.288 306.943 298.469C306.94 298.704 306.941 298.938 306.944 299.171C306.946 299.349 306.948 299.526 306.953 299.703C306.96 299.942 306.972 300.179 306.984 300.416C306.993 300.586 307.001 300.757 307.013 300.926C307.03 301.176 307.054 301.425 307.078 301.673C307.092 301.827 307.104 301.981 307.122 302.135C307.155 302.428 307.195 302.719 307.237 303.011C307.252 303.117 307.264 303.223 307.28 303.329C307.341 303.724 307.41 304.118 307.488 304.508C307.506 304.599 307.528 304.688 307.547 304.779C307.609 305.079 307.674 305.377 307.746 305.674C307.779 305.81 307.817 305.945 307.851 306.081C307.916 306.33 307.98 306.578 308.051 306.824C308.094 306.972 308.14 307.118 308.185 307.265C308.256 307.497 308.328 307.728 308.404 307.957C308.455 308.107 308.508 308.257 308.561 308.406C308.639 308.63 308.721 308.852 308.805 309.073C308.862 309.221 308.921 309.369 308.98 309.516C309.023 309.621 309.061 309.729 309.105 309.833L166.713 255.587Z" fill="#C8C2B2"/>
<path d="M455.893 216.425C455.91 216.38 455.926 216.335 455.942 216.288C456.066 215.917 456.134 215.539 456.151 215.163C456.152 215.145 456.156 215.127 456.157 215.109C456.157 215.093 456.154 215.078 456.155 215.063C456.159 214.869 456.151 214.676 456.129 214.486C456.126 214.463 456.121 214.44 456.118 214.416C456.095 214.247 456.061 214.081 456.017 213.916C456.008 213.881 456 213.846 455.99 213.811C455.939 213.637 455.877 213.468 455.804 213.302C455.788 213.266 455.77 213.231 455.753 213.196C455.683 213.045 455.603 212.899 455.514 212.758C455.502 212.739 455.492 212.719 455.48 212.7C455.379 212.545 455.265 212.398 455.144 212.257C455.12 212.23 455.096 212.204 455.072 212.178C454.946 212.039 454.814 211.907 454.668 211.785C454.668 211.784 454.667 211.784 454.666 211.783C454.521 211.663 454.365 211.554 454.202 211.452C454.167 211.43 454.13 211.408 454.093 211.387C453.929 211.291 453.759 211.201 453.577 211.127C421.357 197.888 375.941 189.557 345.159 205.873C331.687 213.014 322.175 224.961 312.977 236.514C312.224 237.46 311.472 238.405 310.717 239.348C310.685 239.387 310.654 239.428 310.623 239.469L295.157 260.309C293.788 262.154 294.174 264.761 296.019 266.131C296.333 266.365 296.671 266.547 297.019 266.68C298.717 267.327 300.705 266.8 301.842 265.269L316.186 245.94C324.968 245.286 331.591 245.939 340.536 246.823C345.177 247.281 350.436 247.801 356.879 248.224C370.807 249.139 400.836 242.208 416.381 234.489C429.977 227.738 441.028 223.082 453.33 218.919C453.345 218.914 453.357 218.907 453.371 218.901C453.552 218.838 453.728 218.764 453.898 218.677C453.908 218.671 453.919 218.667 453.929 218.662C454.098 218.573 454.259 218.471 454.415 218.36C454.443 218.339 454.471 218.318 454.5 218.297C454.799 218.071 455.069 217.804 455.302 217.499C455.324 217.47 455.346 217.442 455.367 217.412C455.477 217.26 455.58 217.102 455.669 216.933C455.673 216.927 455.676 216.92 455.679 216.913C455.739 216.798 455.796 216.68 455.846 216.558C455.865 216.514 455.877 216.469 455.893 216.425ZM349.058 213.227C362.047 206.342 378.889 203.838 399.116 205.785C404.552 206.308 410.18 207.168 415.877 208.325C399.742 209.741 383.57 213.052 374.441 215.141C359.708 218.513 343.406 223.2 330.82 228.097C336.264 222.136 342.084 216.924 349.058 213.227ZM412.68 227.034C397.551 234.546 368.726 240.66 357.425 239.918C351.119 239.503 345.931 238.991 341.355 238.539C337.214 238.13 333.447 237.759 329.663 237.545C331.724 236.674 334.112 235.727 336.892 234.701C348.08 230.575 362.075 226.51 376.297 223.256C400.923 217.62 422.194 215.183 436.747 216.157C429.101 219.214 421.396 222.706 412.68 227.034Z" fill="#A17F63"/>
</g>
<defs>
<clipPath id="clip0">
<rect width="283.912" height="283.912" fill="white" transform="translate(228.449 15.9473) rotate(20.8549)"/>
</clipPath>
</defs>
</svg>
