<svg width="411" height="411" viewBox="0 0 411 411" fill="none" xmlns="http://www.w3.org/2000/svg">
<mask id="mask0" mask-type="alpha" maskUnits="userSpaceOnUse" x="0" y="0" width="411" height="411">
<rect width="411" height="411" fill="#C4C4C4"/>
</mask>
<g mask="url(#mask0)">
</g>
<g clip-path="url(#clip0)">
<path d="M240.898 102.769C238.366 102.769 236.313 100.716 236.313 98.1836V86.6216C236.313 84.0895 238.366 82.0366 240.898 82.0366C243.43 82.0366 245.483 84.0895 245.483 86.6216V98.1836C245.483 100.716 243.43 102.769 240.898 102.769Z" fill="#8BA7BC"/>
<path d="M240.898 138.311C238.366 138.311 236.313 136.258 236.313 133.726V122.164C236.313 119.632 238.366 117.579 240.898 117.579C243.43 117.579 245.483 119.632 245.483 122.164V133.726C245.483 136.258 243.43 138.311 240.898 138.311Z" fill="#8BA7BC"/>
<path d="M264.443 114.759H252.881C250.349 114.759 248.296 112.706 248.296 110.174C248.296 107.642 250.349 105.589 252.881 105.589H264.443C266.975 105.589 269.028 107.642 269.028 110.174C269.028 112.706 266.975 114.759 264.443 114.759Z" fill="#8BA7BC"/>
<path d="M228.901 114.759H217.339C214.806 114.759 212.754 112.706 212.754 110.174C212.754 107.642 214.806 105.589 217.339 105.589H228.901C231.433 105.589 233.486 107.642 233.486 110.174C233.486 112.706 231.433 114.759 228.901 114.759Z" fill="#8BA7BC"/>
<path d="M72.1241 289.419C69.592 289.419 67.5391 287.367 67.5391 284.834V273.272C67.5391 270.74 69.592 268.688 72.1241 268.688C74.6562 268.688 76.7091 270.74 76.7091 273.272V284.834C76.7091 287.367 74.6562 289.419 72.1241 289.419Z" fill="#8BA7BC"/>
<path d="M72.1241 324.963C69.592 324.963 67.5391 322.911 67.5391 320.378V308.816C67.5391 306.284 69.592 304.231 72.1241 304.231C74.6562 304.231 76.7091 306.284 76.7091 308.816V320.378C76.7091 322.911 74.6562 324.963 72.1241 324.963Z" fill="#8BA7BC"/>
<path d="M95.6804 301.409H84.1184C81.5863 301.409 79.5335 299.356 79.5335 296.824C79.5335 294.292 81.5863 292.239 84.1184 292.239H95.6804C98.2126 292.239 100.265 294.292 100.265 296.824C100.265 299.356 98.2126 301.409 95.6804 301.409Z" fill="#8BA7BC"/>
<path d="M60.1374 301.409H48.5754C46.0433 301.409 43.9904 299.356 43.9904 296.824C43.9904 294.292 46.0433 292.239 48.5754 292.239H60.1374C62.6695 292.239 64.7224 294.292 64.7224 296.824C64.7224 299.356 62.6695 301.409 60.1374 301.409Z" fill="#8BA7BC"/>
<path d="M303.572 278.903C300.435 288.299 294.826 292.464 288.806 293.902C277.354 296.634 264.445 289.455 264.445 289.455C261.655 300.677 258.28 311.745 254.334 322.614C248.172 339.25 228.139 338.17 208.291 331.72C188.443 325.27 178.612 313.676 180.444 307.024C182.277 300.371 185.864 283.602 185.864 283.602C185.864 283.602 173.389 279.819 164.58 274.675C160.883 272.53 157.817 270.148 156.59 267.677C136.337 227.22 179.764 163.649 242.395 178.011C305.026 192.373 312.65 251.612 303.572 278.903Z" fill="#BFBFBF"/>
<path d="M222.617 313.784C219.725 314.377 216.723 314.126 213.969 313.061C209.624 311.364 206.323 307.816 204.678 303.083C203.082 298.302 203.239 293.11 205.121 288.435C205.22 288.139 205.379 287.867 205.586 287.635C205.794 287.403 206.046 287.215 206.329 287.083C206.611 286.951 206.917 286.877 207.228 286.867C207.54 286.857 207.85 286.91 208.14 287.023C208.431 287.136 208.695 287.306 208.917 287.525C209.14 287.743 209.316 288.004 209.434 288.292C209.553 288.58 209.612 288.889 209.608 289.201C209.604 289.512 209.536 289.82 209.41 290.104C207.921 293.766 207.783 297.837 209.02 301.591C210.22 305.037 212.586 307.597 215.64 308.79C222.112 311.311 229.838 307.042 232.874 299.265C233.096 298.695 233.535 298.238 234.095 297.993C234.655 297.747 235.289 297.734 235.858 297.957C236.428 298.179 236.885 298.618 237.131 299.178C237.376 299.738 237.389 300.372 237.166 300.941C234.47 307.836 228.772 312.57 222.617 313.784Z" fill="black"/>
<path opacity="0.6" d="M185.862 283.602C185.862 283.602 173.388 279.819 164.579 274.676C164.579 274.676 167.402 253.895 179.369 259.148C191.335 264.401 185.862 283.602 185.862 283.602Z" fill="#E8398D"/>
<path opacity="0.6" d="M288.807 293.902C277.354 296.634 264.446 289.455 264.446 289.455C264.446 289.455 269.6 268.828 281.859 272.487C294.117 276.146 288.807 293.902 288.807 293.902Z" fill="#E8398D"/>
<path d="M210.785 267.661C210.785 267.661 216.679 279.941 233.848 273.597C233.848 273.597 235.969 244.046 232.16 242.911C223.601 240.362 210.785 267.661 210.785 267.661Z" fill="black"/>
<path d="M203.912 245.894L202.389 242.562C195.936 228.277 181.494 231.655 180.881 231.81C180.238 231.956 179.564 231.844 179.003 231.499C178.442 231.154 178.038 230.603 177.878 229.965C177.717 229.326 177.813 228.65 178.144 228.081C178.476 227.511 179.017 227.095 179.652 226.919C185.562 225.415 197.615 225.817 204.77 236.47C205.353 234.868 205.641 233.174 205.619 231.47C205.61 231.135 205.668 230.801 205.79 230.489C205.911 230.177 206.094 229.892 206.327 229.651C206.56 229.41 206.838 229.218 207.146 229.086C207.454 228.953 207.785 228.884 208.12 228.881C208.455 228.879 208.788 228.943 209.098 229.07C209.408 229.197 209.689 229.385 209.926 229.622C210.163 229.859 210.35 230.141 210.476 230.452C210.603 230.762 210.666 231.094 210.663 231.429C210.716 238.914 206.657 243.115 206.483 243.299L203.912 245.894Z" fill="black"/>
<path d="M249.922 252.633C249.304 252.464 248.776 252.062 248.447 251.513C248.274 251.23 248.159 250.916 248.107 250.589C248.056 250.261 248.07 249.927 248.148 249.605C248.226 249.283 248.367 248.98 248.563 248.712C248.759 248.445 249.005 248.219 249.289 248.047C262.588 239.97 274.361 247.218 278.739 252.164C279.182 252.665 279.408 253.322 279.367 253.99C279.326 254.658 279.021 255.282 278.52 255.725C278.019 256.168 277.362 256.394 276.694 256.353C276.027 256.311 275.403 256.007 274.96 255.506C274.551 255.049 264.871 244.462 251.918 252.338C251.623 252.522 251.294 252.642 250.95 252.693C250.607 252.744 250.257 252.723 249.922 252.633Z" fill="black"/>
<path d="M4.91927 142.003C6.47354 151.99 11.3958 157.132 17.2073 159.611C28.2473 164.313 42.4633 159.302 42.4633 159.302C43.353 171.063 44.8569 182.771 46.9688 194.375C50.329 212.159 70.6468 214.49 91.703 211.393C112.759 208.297 124.603 198.307 123.899 191.307C123.195 184.307 122.435 166.821 122.435 166.821C122.435 166.821 135.613 165.145 145.344 161.478C149.424 159.947 152.92 158.091 154.566 155.802C181.824 118.569 149.01 47.2486 83.6125 50.9809C18.2147 54.7132 0.444707 113.004 4.91927 142.003Z" fill="#BFBFBF"/>
<path opacity="0.6" d="M122.436 166.82C122.436 166.82 135.614 165.143 145.345 161.476C145.345 161.476 146.049 140.097 133.147 143.333C120.245 146.568 122.436 166.82 122.436 166.82Z" fill="#E8398D"/>
<path opacity="0.6" d="M17.211 159.611C28.251 164.312 42.4669 159.301 42.4669 159.301C42.4669 159.301 40.7996 137.673 27.8522 139.264C14.9048 140.854 17.211 159.611 17.211 159.611Z" fill="#E8398D"/>
<path d="M100.102 146.537C100.102 146.537 92.096 157.878 75.9082 148.568C75.9082 148.568 78.8164 118.488 82.8383 117.999C91.8782 116.896 100.102 146.537 100.102 146.537Z" fill="black"/>
<path d="M113.45 120.013C110.244 120.34 107.3 121.927 105.263 124.425C103.809 122.17 102.884 119.615 102.559 116.951C101.552 109.186 105.404 102.282 111.167 101.534C116.931 100.787 122.414 106.474 123.406 114.241C123.807 117.117 123.49 120.048 122.484 122.772C121.239 121.732 119.798 120.952 118.246 120.478C116.694 120.004 115.064 119.846 113.45 120.013V120.013Z" fill="black"/>
<path d="M55.8754 125.975C52.6716 126.303 49.7291 127.89 47.6932 130.387C46.2391 128.132 45.3147 125.576 44.9896 122.912C43.9776 115.148 47.8345 108.243 53.5928 107.496C59.3511 106.749 64.8447 112.436 65.8309 120.203C66.2287 123.08 65.9104 126.01 64.9044 128.735C63.6599 127.695 62.2197 126.914 60.669 126.44C59.1182 125.966 57.4883 125.808 55.8754 125.975V125.975Z" fill="black"/>
<path d="M90.1671 189.538C92.7319 189.293 95.1963 188.417 97.3409 186.989C101.682 184.057 104.488 179.213 105.686 172.594C105.842 171.738 105.752 170.855 105.426 170.049C105.1 169.242 104.552 168.545 103.846 168.038C103.139 167.531 102.303 167.235 101.435 167.185C100.568 167.135 99.7033 167.332 98.9432 167.754C93.0112 171.044 84.0158 173.781 74.8783 168.164C74.0699 167.671 73.129 167.44 72.1843 167.503C71.2397 167.566 70.3376 167.92 69.6019 168.516C68.8661 169.112 68.3325 169.921 68.0744 170.832C67.8163 171.744 67.8463 172.713 68.1602 173.606C70.1922 179.417 74.5737 186.822 83.9021 189.109C85.9505 189.611 88.0697 189.755 90.1671 189.538V189.538ZM101.079 170.796C101.228 170.785 101.377 170.807 101.516 170.862C101.655 170.918 101.779 171.004 101.879 171.114C101.98 171.225 102.054 171.357 102.095 171.501C102.136 171.645 102.144 171.796 102.118 171.943C101.104 177.57 98.8187 181.621 95.3189 183.987C92.4461 185.929 88.6047 186.504 84.792 185.598C77.0428 183.694 73.3467 177.384 71.6075 172.391C71.538 172.201 71.5317 171.994 71.5895 171.8C71.6472 171.607 71.766 171.437 71.928 171.317C72.0744 171.189 72.258 171.113 72.4515 171.098C72.6449 171.084 72.8378 171.133 73.0015 171.237C84.1893 178.119 95.1674 173.985 100.716 170.912C100.828 170.849 100.951 170.81 101.079 170.796V170.796Z" fill="black"/>
</g>
<defs>
<clipPath id="clip0">
<rect width="313" height="313" fill="white" transform="translate(0 47)"/>
</clipPath>
</defs>
</svg>
