<svg width="411" height="411" viewBox="0 0 411 411" fill="none" xmlns="http://www.w3.org/2000/svg">
<mask id="mask0" mask-type="alpha" maskUnits="userSpaceOnUse" x="0" y="0" width="411" height="411">
<rect width="411" height="411" fill="#C4C4C4"/>
</mask>
<g mask="url(#mask0)">
</g>
<g clip-path="url(#clip0)">
<path d="M522.802 252.343C522.957 258.89 544.46 273.743 527.464 285.439C516.084 293.238 503.31 269.287 481.218 268.997C459.003 268.755 356.489 260.734 350.566 267.622C344.643 274.509 333.734 278.824 326.299 269.964C318.918 261.185 331.637 251.516 332.025 238.997C332.153 233.592 320.508 218.552 337.176 211.136C350.886 205.036 356.887 225.435 362.746 226.619C382.969 230.645 475.542 232.762 486.492 232.451C499.545 232.08 505.015 210.867 523.021 220.209C535.923 226.913 522.404 236.94 522.802 252.343Z" fill="#BFBFBF"/>
<path d="M322.733 235.167C323.85 248.663 320.491 268.487 307.246 274.601C294 280.714 245.913 282.225 241.105 272.183C236.341 262.217 247.039 235.683 246.577 228.637C246.115 221.591 239.984 199.393 256.068 193.854C272.188 188.427 320.809 211.903 322.733 235.167Z" fill="#BFBFBF"/>
<path d="M354.33 183.304C352.088 187.032 344.059 187.058 338.973 182.973C333.886 178.887 322.018 133.748 324.66 129.666C329.145 122.701 341.457 120.866 345.292 130.631C351.357 145.965 357.443 178.016 354.33 183.304Z" fill="#BFBFBF"/>
<path d="M230.355 256.887C233.45 257.834 235.414 265.45 228.135 268.374C224.618 269.796 163.658 273.379 159.155 269.67C154.652 265.961 154.822 256.502 161.608 253.972C169.902 250.841 224.179 255.026 230.355 256.887Z" fill="#BFBFBF"/>
<path d="M239.321 216.742C241.891 218.33 241.079 225.964 233.189 227.099C229.368 227.641 170.933 217.532 168.053 213.055C165.174 208.579 168.614 199.622 175.938 198.703C184.743 197.658 234.216 213.594 239.321 216.742Z" fill="#BFBFBF"/>
<path d="M234.647 236.808C237.575 238.243 237.732 246.5 229.444 248.559C225.438 249.537 161.419 244.706 157.678 240.176C153.937 235.646 156.521 225.756 164.218 224.065C173.547 221.957 228.681 233.986 234.647 236.808Z" fill="#BFBFBF"/>
<path d="M268.311 221.484C295.255 201.439 317.792 175.133 317.792 148.412C317.792 118.383 297.11 94.0352 271.605 94.0352C251.204 94.0352 234.662 113.516 234.662 137.536C234.662 113.516 218.118 94.0352 197.718 94.0352C182.807 94.0352 169.558 102.344 161.116 115.252C155.092 124.435 151.531 135.934 151.531 148.412C151.531 185.949 196.027 222.655 234.662 242.404C245.804 236.722 257.421 229.614 268.311 221.484Z" fill="#FD5D65"/>
<path d="M255.335 221.484C271.888 201.439 285.734 175.134 285.734 148.413C285.734 122.208 276.056 100.334 263.181 95.1863C265.887 94.4419 268.706 94.0352 271.606 94.0352C297.11 94.0352 317.793 118.383 317.793 148.412C317.793 175.133 295.256 201.439 268.312 221.484C257.422 229.614 245.804 236.721 234.663 242.404C241.507 236.722 248.645 229.615 255.335 221.484Z" fill="#E54E5C"/>
</g>
<defs>
<clipPath id="clip0">
<rect width="350" height="350" fill="white" transform="matrix(-1 0 0 1 436 28)"/>
</clipPath>
</defs>
</svg>
