<svg width="30" height="30" viewBox="0 0 30 30" fill="none" xmlns="http://www.w3.org/2000/svg">
<g clip-path="url(#clip0)">
<g clip-path="url(#clip1)">
<path d="M14.8344 3.3826L14.8345 3.38256C14.9327 3.31066 15.0662 3.31058 15.1646 3.38262L29.385 13.7945C29.385 13.7945 29.385 13.7945 29.385 13.7945C29.5096 13.8858 29.5365 14.0606 29.4454 14.185L29.4453 14.1851C29.3908 14.2596 29.3068 14.2995 29.2192 14.2995C29.1619 14.2995 29.1049 14.2823 29.0549 14.2456L29.0548 14.2455L15.2948 4.17073L14.9994 3.95445L14.704 4.17073L0.944092 14.2455C0.944082 14.2456 0.944072 14.2456 0.944063 14.2456C0.819549 14.3367 0.64461 14.3097 0.553413 14.1851C0.462278 14.0607 0.489232 13.8858 0.613844 13.7945C0.613854 13.7945 0.613864 13.7945 0.613874 13.7945L14.8344 3.3826Z" fill="black" stroke="#262626"/>
<path d="M25.1334 28.5122H25.6334V28.0122V15.605C25.6334 15.4507 25.7585 15.3256 25.9129 15.3256C26.0671 15.3256 26.1923 15.4506 26.1924 15.6051C26.1924 15.6051 26.1924 15.6051 26.1924 15.6052V28.7918C26.1924 28.9461 26.0673 29.0713 25.9129 29.0713H18.1182C17.9722 29.0713 17.8514 28.9582 17.8404 28.8137L17.8406 28.8137L17.8391 28.8C17.839 28.7985 17.8388 28.7962 17.8388 28.7918V21.2396C17.8388 19.674 16.5658 18.4009 15.0001 18.4009C13.4343 18.4009 12.1614 19.6739 12.1614 21.2396V28.7918C12.1614 28.7946 12.1613 28.7967 12.1612 28.7984C12.1611 28.7996 12.161 28.8005 12.1609 28.8013L12.1608 28.8013L12.1598 28.814C12.1486 28.9583 12.0279 29.0713 11.8819 29.0713H4.08721C3.9329 29.0713 3.80774 28.9461 3.80774 28.7918V15.6051C3.80774 15.4508 3.9329 15.3256 4.08721 15.3256C4.24152 15.3256 4.36668 15.4508 4.36668 15.6051V28.0123V28.5123H4.86668H11.1024H11.6024V28.0123V21.2396C11.6024 19.3666 13.1271 17.8419 15.0001 17.8419C16.873 17.8419 18.3977 19.3665 18.3977 21.2396V28.0122V28.5122H18.8977H25.1334Z" fill="black" stroke="#262626"/>
</g>
</g>
<defs>
<clipPath id="clip0">
<rect width="30" height="30" fill="white"/>
</clipPath>
<clipPath id="clip1">
<rect width="30" height="30" fill="white" transform="translate(0 1.19995)"/>
</clipPath>
</defs>
</svg>
