<svg width="50" height="50" viewBox="0 0 50 50" fill="none" xmlns="http://www.w3.org/2000/svg">
<circle cx="24.5" cy="24.5" r="12.5" stroke="#262626" stroke-width="2"/>
<path d="M23.06 21.26H25.42V31H23.06V21.26ZM22.78 18.14C22.78 17.7133 22.9067 17.38 23.16 17.14C23.4133 16.8867 23.7733 16.76 24.24 16.76C24.6933 16.76 25.0467 16.8867 25.3 17.14C25.5667 17.38 25.7 17.7133 25.7 18.14C25.7 18.5667 25.5667 18.9067 25.3 19.16C25.0467 19.4 24.6933 19.52 24.24 19.52C23.7733 19.52 23.4133 19.4 23.16 19.16C22.9067 18.9067 22.78 18.5667 22.78 18.14Z" fill="#262626"/>
</svg>
