<svg width="134" height="133" viewBox="0 0 134 133" fill="none" xmlns="http://www.w3.org/2000/svg">
<path d="M133.022 68.355C132.594 76.7133 128.976 81.3683 124.403 83.9058C115.706 88.7193 103.563 85.8003 103.563 85.8003C103.83 95.5648 103.588 105.337 102.838 115.076C101.587 130.009 85.0456 133.661 67.4288 132.907C49.812 132.153 39.1947 124.934 39.1776 119.105C39.1604 113.276 38.2989 98.8136 38.2989 98.8136C38.2989 98.8136 27.2959 98.5607 18.959 96.3704C15.4656 95.4574 12.4309 94.2272 10.875 92.4827C-14.7615 64.1415 6.19429 2.57273 60.4078 0.0952314C114.621 -2.38227 134.253 44.0901 133.022 68.355Z" fill="white"/>
<path d="M75.0465 115.059C72.8274 116.197 70.3274 116.672 67.8455 116.426C63.9235 116.028 60.4345 113.893 58.0213 110.425C55.6384 106.89 54.5929 102.622 55.0723 98.3852C55.085 98.1217 55.1512 97.8636 55.2669 97.6266C55.3827 97.3895 55.5455 97.1786 55.7454 97.0066C55.9454 96.8345 56.1783 96.7051 56.43 96.626C56.6816 96.547 56.9468 96.5201 57.2092 96.5469C57.4716 96.5737 57.7258 96.6537 57.9563 96.782C58.1867 96.9104 58.3886 97.0843 58.5497 97.2932C58.7107 97.5021 58.8275 97.7417 58.8928 97.9972C58.9582 98.2528 58.9709 98.519 58.93 98.7795C58.5486 102.094 59.3568 105.436 61.2103 108.209C62.9677 110.743 65.458 112.294 68.227 112.573C74.065 113.16 79.3714 107.935 80.1001 100.923C80.1909 100.444 80.4577 100.017 80.8479 99.726C81.2381 99.4347 81.7233 99.3003 82.2078 99.3493C82.6922 99.3983 83.1408 99.6271 83.4647 99.9906C83.7887 100.354 83.9647 100.826 83.9578 101.313C83.3449 107.537 79.7787 112.676 75.0465 115.059Z" fill="black"/>
<path opacity="0.6" d="M38.2991 98.8137C38.2991 98.8137 27.2961 98.5608 18.9591 96.3705C18.9591 96.3705 16.5588 78.7965 27.4632 80.3825C38.3676 81.9684 38.2991 98.8137 38.2991 98.8137Z" fill="#E8398D"/>
<path opacity="0.6" d="M124.394 83.9058C115.697 88.7193 103.554 85.8004 103.554 85.8004C103.554 85.8004 103.083 67.8449 113.884 68.055C124.686 68.265 124.394 83.9058 124.394 83.9058Z" fill="#E8398D"/>
<path d="M54.9551 80.2065C54.9551 80.2065 62.5204 88.8649 75.0665 79.8165C75.0665 79.8165 70.1072 55.2901 66.7468 55.2301C59.2414 55.0887 54.9551 80.2065 54.9551 80.2065Z" fill="black"/>
<path d="M51.7623 51.9936C51.9308 45.5118 48.1674 40.1559 43.3564 40.0307C38.5453 39.9056 34.5085 45.0586 34.3399 51.5404C34.1713 58.0222 37.9348 63.3782 42.7458 63.5033C47.5569 63.6284 51.5937 58.4754 51.7623 51.9936Z" fill="black"/>
<path d="M100.159 41.1179C100.956 40.3529 100.982 39.0868 100.217 38.29C99.4522 37.4932 98.1862 37.4674 97.3893 38.2323L100.159 41.1179ZM88.4424 49.5938L87.0573 48.151L84.5316 50.5757L87.9031 51.5198L88.4424 49.5938ZM98.2351 54.4127C99.2988 54.7105 100.403 54.0897 100.7 53.0261C100.998 51.9624 100.377 50.8587 99.3137 50.5609L98.2351 54.4127ZM97.3893 38.2323L87.0573 48.151L89.8274 51.0366L100.159 41.1179L97.3893 38.2323ZM87.9031 51.5198L98.2351 54.4127L99.3137 50.5609L88.9816 47.6679L87.9031 51.5198Z" fill="black"/>
</svg>
