<svg width="346" height="3439" viewBox="0 0 346 3439" fill="none" xmlns="http://www.w3.org/2000/svg">
<path d="M69.5 2H42C19.9086 2 2 19.9086 2 42V120.74C2 142.831 19.9086 160.74 42 160.74H272C294.091 160.74 312 178.648 312 200.74V409.802C312 431.894 294.091 449.802 272 449.802H42C19.9086 449.802 2 467.711 2 489.802V813.895C2 835.986 19.9086 853.895 42 853.895H304C326.091 853.895 344 871.804 344 893.895V1128.74C344 1150.83 326.091 1168.74 304 1168.74H42C19.9086 1168.74 2 1186.65 2 1208.74V1341.45C2 1363.54 19.9086 1381.45 42 1381.45H304C326.091 1381.45 344 1399.36 344 1421.45V1513C344 1535.09 326.091 1553 304 1553H42C19.9086 1553 2 1570.91 2 1593V1856.5C2 1878.59 19.9086 1896.5 42 1896.5H304C326.091 1896.5 344 1914.41 344 1936.5V2025V2091C344 2113.09 326.091 2131 304 2131H84C61.9086 2131 44 2148.91 44 2171V2584C44 2606.09 61.9086 2624 84 2624H259.5C281.591 2624 299.5 2641.91 299.5 2664V2863C299.5 2885.09 281.591 2903 259.5 2903H84C61.9086 2903 44 2920.91 44 2943V3436.5" stroke="#A5C4E3" stroke-width="4" stroke-linecap="round" stroke-dasharray="1 15"/>
</svg>
