<svg width="411" height="411" viewBox="0 0 411 411" fill="none" xmlns="http://www.w3.org/2000/svg">
<mask id="mask0" mask-type="alpha" maskUnits="userSpaceOnUse" x="0" y="0" width="411" height="411">
<rect width="411" height="411" fill="#C4C4C4"/>
</mask>
<g mask="url(#mask0)">
</g>
<g clip-path="url(#clip0)">
<path d="M339.126 236.918C321.243 236.677 306.258 230.761 294.158 221.987L290.726 275.923C288.68 300.615 308.169 321.785 332.946 321.785H411.888C419.213 321.785 424.866 315.331 423.894 308.07C414.287 236.334 405.219 167.008 361.372 137.95C356.126 134.471 349.958 132.638 343.662 132.638C326.934 132.638 300.499 145.466 299.118 162.138L297.088 186.619C306.986 197.941 321.347 209.175 339.497 209.419L339.126 236.918Z" fill="#CF4842"/>
<path d="M411.884 321.785C419.209 321.785 424.861 315.331 423.889 308.07C414.282 236.334 405.214 167.008 361.367 137.947C356.119 134.471 349.953 132.638 343.657 132.638C339.199 132.638 334.048 133.551 328.868 135.204C330.642 135.958 332.35 136.874 333.972 137.95C377.817 167.008 386.885 236.334 396.492 308.07C397.466 315.331 391.811 321.785 384.486 321.785H411.884Z" fill="#A83A36"/>
<path d="M198.692 237.545H198.886C216.769 237.303 231.747 228.796 243.845 220.024L247.279 275.921C249.324 300.615 229.834 321.785 205.057 321.785H126.116C118.789 321.785 113.137 315.331 114.109 308.07C123.716 236.334 132.784 167.008 176.63 137.947C181.879 134.471 188.044 132.638 194.34 132.638C211.069 132.638 237.504 145.464 238.885 162.135L240.914 186.619C231.019 197.941 216.658 209.173 198.508 209.419L198.886 237.545" fill="#CF4842"/>
<path d="M114.109 308.07C123.716 236.334 132.784 167.008 176.63 137.947C181.879 134.471 188.044 132.638 194.34 132.638C198.801 132.638 203.95 133.551 209.129 135.204C207.356 135.958 205.648 136.874 204.028 137.95C160.181 167.008 151.113 236.334 141.506 308.07C140.534 315.331 146.189 321.785 153.511 321.785H126.116C118.792 321.785 113.137 315.331 114.109 308.07V308.07Z" fill="#A83A36"/>
<path d="M210.539 223.481C210.539 208.29 205.154 195.978 198.508 195.978C191.862 195.978 186.474 208.29 186.474 223.481C186.474 238.67 191.862 250.983 198.508 250.983C205.154 250.983 210.539 238.67 210.539 223.481Z" fill="#A83A36"/>
<path d="M351.528 223.481C351.528 208.29 346.143 195.978 339.497 195.978C332.851 195.978 327.463 208.29 327.463 223.481C327.463 238.67 332.851 250.983 339.497 250.983C346.143 250.983 351.528 238.67 351.528 223.481Z" fill="#A83A36"/>
<path d="M343.684 190.507C344.36 188.007 342.882 185.434 340.382 184.757C337.882 184.083 335.309 185.559 334.632 188.059C331.515 199.594 321.849 201.491 319.394 201.779C319.165 201.808 318.933 201.8 318.706 201.77L317.741 201.635C314.699 201.209 311.79 200.057 309.345 198.198C298.586 190.027 290.722 179.131 286.141 171.693C283.898 168.055 282.735 163.857 282.735 159.583C282.735 142.159 282.735 92.3241 282.735 67.9493C282.735 60.3502 276.574 54.1914 268.975 54.1914H268.367C260.768 54.1914 254.606 60.3525 254.606 67.9516V159.638C254.606 163.904 253.436 168.088 251.198 171.721C248.573 175.988 244.862 181.394 240.134 186.775C236.175 191.28 232.102 195.114 227.93 198.281C225.274 200.296 222.084 201.479 218.758 201.718L218.541 201.734C217.926 201.777 217.306 201.753 216.701 201.642C213.331 201.029 205.187 198.466 202.373 188.061C201.699 185.562 199.126 184.083 196.623 184.757C194.126 185.434 192.648 188.009 193.322 190.507C196.011 200.455 202.155 205.613 207.318 208.271C206.022 208.567 204.719 208.82 203.409 209.002C200.24 209.437 197.865 212.117 197.886 215.315L197.962 226.561C198.002 232.781 203.593 237.523 209.726 236.494C209.764 236.487 209.802 236.482 209.84 236.475C209.911 239.73 209.544 253.374 198.754 255.95C196.316 256.531 194.641 258.913 195.091 261.378C195.509 263.667 197.496 265.233 199.7 265.233C200.05 265.233 200.403 265.193 200.758 265.112C216.696 261.432 219.771 243.914 219.17 235.163C219.17 235.16 219.168 235.158 219.168 235.156C219.132 234.626 219.44 234.141 219.943 233.978C235.721 228.883 248.448 219.016 258.142 208.773C263.856 202.737 273.49 202.744 279.204 208.78C288.834 218.95 301.452 228.749 317.079 233.871C317.582 234.035 317.895 234.524 317.845 235.052C317.842 235.087 317.84 235.127 317.838 235.165C317.235 243.914 320.309 261.434 336.248 265.112C336.603 265.193 336.957 265.233 337.305 265.233C339.512 265.233 341.498 263.667 341.915 261.378C342.364 258.916 340.694 256.534 338.256 255.952C327.4 253.365 327.092 239.567 327.166 236.414C327.348 236.447 327.539 236.478 327.74 236.508C333.835 237.462 339.339 232.727 339.379 226.558L339.455 215.31C339.476 212.138 337.144 209.44 334.003 209.007C332.572 208.811 331.17 208.543 329.793 208.217C334.935 205.542 341.013 200.386 343.684 190.507V190.507Z" fill="#E0726E"/>
</g>
<defs>
<clipPath id="clip0">
<rect width="310" height="310" fill="white" transform="translate(114 33)"/>
</clipPath>
</defs>
</svg>
