<svg width="411" height="411" viewBox="0 0 411 411" fill="none" xmlns="http://www.w3.org/2000/svg">
<mask id="mask0" mask-type="alpha" maskUnits="userSpaceOnUse" x="0" y="0" width="411" height="411">
<rect width="411" height="411" fill="#C4C4C4"/>
</mask>
<g mask="url(#mask0)">
</g>
<path d="M137.5 82C69.382 82 14 137.382 14 205.5C14 273.618 69.382 329 137.5 329C205.618 329 261 273.618 261 205.5C261 137.382 205.618 82 137.5 82Z" fill="#EDEDED"/>
<path d="M137.5 136.031C175.9 136.031 206.969 167.099 206.969 205.5C206.969 243.901 175.901 274.969 137.5 274.969C99.0988 274.969 68.031 243.901 68.031 205.5C68.031 167.099 99.0988 136.031 137.5 136.031Z" fill="#3DB39E"/>
<path d="M160.657 163.047C169.147 163.047 176.094 169.994 176.094 178.485C176.094 186.975 169.148 193.922 160.657 193.922C152.166 193.922 145.219 186.975 145.219 178.485C145.219 169.994 152.166 163.047 160.657 163.047Z" fill="#9ED9CF"/>
<path d="M137.5 170.766C156.604 170.766 172.234 186.396 172.234 205.5C172.234 224.603 156.603 240.234 137.5 240.234C118.396 240.234 102.766 224.796 102.766 205.5C102.766 186.203 118.396 170.766 137.5 170.766Z" fill="#324D5B"/>
<path d="M146.57 171.923C145.605 173.852 145.219 176.168 145.219 178.484C145.219 186.974 152.166 193.922 160.657 193.922C163.744 193.922 166.832 192.957 169.147 191.413C165.095 181.957 156.797 174.818 146.57 171.923Z" fill="#99A6AD"/>
<path d="M143.289 234.445C124.185 234.445 108.555 218.814 108.555 199.711C108.555 191.606 111.449 184.08 116.08 178.291C107.976 184.659 102.766 194.5 102.766 205.499C102.766 224.603 118.396 240.234 137.5 240.234C148.499 240.234 158.34 235.023 164.708 226.919C158.919 231.744 151.393 234.445 143.289 234.445Z" fill="#2B424D"/>
<path d="M147.148 263.391C108.747 263.391 77.6792 232.323 77.6792 193.922C77.6792 179.835 81.9247 166.521 89.2574 155.521C76.1354 168.257 68.031 185.818 68.031 205.5C68.031 243.901 99.0987 274.969 137.5 274.969C161.621 274.969 183.04 262.619 195.39 243.901C182.847 255.865 165.866 263.391 147.148 263.391Z" fill="#37A18E"/>
</svg>
