<svg width="411" height="411" viewBox="0 0 411 411" fill="none" xmlns="http://www.w3.org/2000/svg">
<mask id="mask0" mask-type="alpha" maskUnits="userSpaceOnUse" x="0" y="0" width="411" height="411">
<rect width="411" height="411" fill="#C4C4C4"/>
</mask>
<g mask="url(#mask0)">
</g>
<g clip-path="url(#clip0)">
<path d="M253.764 316.334C259.148 303.055 258.624 284.906 257.401 274.529L269.911 272.004C273.927 271.194 277.38 269.029 279.831 266.041C280.204 268.23 281.827 278.556 281.596 291.293C281.356 304.521 279.267 315.935 275.368 325.406C272.469 332.448 263.697 334.848 257.643 330.226L257.396 330.037C253.2 326.833 251.781 321.227 253.764 316.334Z" fill="#5B9ED6"/>
<path d="M258.204 289.592L269.916 287.228C273.932 286.418 278.936 283.567 281.389 280.581C281.654 282.135 280.208 268.23 279.835 266.041C277.384 269.027 273.932 271.194 269.918 272.004L257.405 274.529C257.885 278.605 258.255 283.884 258.204 289.592V289.592Z" fill="#4C83B3"/>
<path d="M267.09 119.948L274.348 154.083C272.881 153.566 271.304 153.279 269.659 153.279H250.233L244.183 124.817C242.837 118.492 246.874 112.273 253.201 110.928C259.526 109.585 265.745 113.623 267.09 119.948V119.948Z" fill="#5B9ED6"/>
<path d="M270.942 138.062C269.475 137.545 267.011 137.667 265.365 137.667H246.914L250.233 153.281H269.659C271.304 153.281 272.881 153.565 274.346 154.083L270.942 138.062Z" fill="#4C83B3"/>
<path d="M351.945 126.187L345.893 154.65H321.948L329.035 121.318C330.381 114.993 336.599 110.955 342.924 112.298C349.252 113.643 353.29 119.862 351.945 126.187V126.187Z" fill="#ED2772"/>
<path d="M349.378 138.255H325.434L321.948 154.649H345.893L349.378 138.255Z" fill="#D12265"/>
<path d="M269.911 272.004C277.959 270.379 283.747 263.308 283.747 255.098V167.373C283.747 159.589 277.437 153.279 269.656 153.279H180.457C148.171 153.282 122 179.453 122 211.738V266.389C122 284.726 138.791 298.466 156.765 294.839L269.911 272.004Z" fill="#CF4842"/>
<path d="M269.654 153.281H258.194C258.209 153.559 258.22 153.839 258.22 154.12V241.845C258.22 250.056 252.433 257.129 244.387 258.752L154.732 276.846L137.167 280.392L131.239 281.586C129.691 281.899 128.157 282.075 126.639 282.137C132.855 291.728 144.533 297.307 156.764 294.838L162.692 293.642L180.258 290.098L269.91 272.004C277.958 270.379 283.746 263.308 283.746 255.098V167.373C283.748 159.589 277.438 153.281 269.654 153.281V153.281Z" fill="#A83A36"/>
<path d="M384.019 153.281H387.666C401.658 153.281 413 164.622 413 178.613C413 187.587 408.254 195.89 400.523 200.444L320.789 247.4C312.148 252.487 301.249 246.257 301.249 236.231V179.002C301.249 164.797 312.765 153.281 326.972 153.281H384.019Z" fill="#CF4842"/>
<path d="M395.881 154.649C396.764 157.227 397.248 159.989 397.248 162.864C397.248 171.838 392.504 180.141 384.771 184.695L305.037 231.649C303.807 232.373 302.532 232.861 301.249 233.147V236.231C301.249 246.26 312.148 252.489 320.789 247.401L400.523 200.445C408.254 195.891 413 187.588 413 178.614C413 167.5 405.838 158.062 395.881 154.649V154.649Z" fill="#A83A36"/>
<path d="M301.249 236.231V179.003C301.249 169.265 306.662 160.791 314.643 156.426H278.526C281.712 159.008 283.748 162.953 283.748 167.373V255.098C283.748 258.084 282.979 260.917 281.619 263.395C289.236 255.904 298.117 248.673 310.585 248.678C305.39 247.141 301.249 242.41 301.249 236.231V236.231Z" fill="#EC947E"/>
</g>
<defs>
<clipPath id="clip0">
<rect width="291" height="291" fill="white" transform="translate(122 76)"/>
</clipPath>
</defs>
</svg>
