<svg width="411" height="479" viewBox="0 0 411 479" fill="none" xmlns="http://www.w3.org/2000/svg">
<path d="M-78.9428 338.451C-49.0688 365.679 -8.85823 377.602 30.4909 384.952C66.4287 391.57 107.977 392.174 140.988 409.27C172.468 425.573 201.094 445.653 234.101 459.542C259.396 470.179 286.128 479.083 313.457 478.098C353.639 476.657 392.268 452.124 411.325 415.946C427.475 385.294 429.593 349.294 436.629 315.23C445.311 273.256 461.755 233.418 479.312 194.454C488.739 173.524 498.692 152.144 500.304 129.159C502.561 97.2604 487.759 65.3928 464.426 44.0618C441.093 22.7307 410.053 11.3935 378.859 8.81402C362.259 7.44355 344.902 8.5722 330.117 16.4087C325.435 18.9757 320.998 21.9829 316.862 25.3914C316.862 25.3914 307.414 38.3147 304.118 36.1386C298.83 40.5683 293.399 44.7564 287.328 47.9138C272.78 55.487 255.792 56.4881 239.495 55.4185C238.177 55.3384 236.865 55.2406 235.559 55.1253C232.343 57.3846 221.524 53.4546 221.524 53.4546C206.347 51.138 191.457 47.16 177.111 41.5892C154.362 32.7434 133.225 19.9924 110.528 11.0235C87.8307 2.0546 62.4511 -2.9961 39.1845 4.29827C17.3508 11.1524 0.00748336 27.9536 -15.5779 44.9798C-41.2229 72.9322 -64.6301 102.944 -85.5737 134.727C-99.6876 156.142 -112.835 178.747 -119.14 203.756C-131.132 251.567 -115.02 305.639 -78.9428 338.451Z" fill="#60D2F1"/>
</svg>
