<svg width="411" height="418" viewBox="0 0 411 418" fill="none" xmlns="http://www.w3.org/2000/svg">
<path opacity="0.8" d="M39.2898 295.349C65.3399 319.11 100.404 329.515 134.716 335.929C166.054 341.704 202.284 342.231 231.07 357.15C258.52 371.377 283.482 388.899 312.264 401.02C334.321 410.302 357.632 418.073 381.462 417.213C416.501 415.956 450.185 394.547 466.803 362.975C480.886 336.227 482.733 304.812 488.868 275.086C496.439 238.457 510.779 203.692 526.088 169.691C534.309 151.426 542.987 132.769 544.393 112.711C546.361 84.8744 533.454 57.0651 513.107 38.4506C492.761 19.836 465.694 9.94255 438.493 7.69156C424.018 6.49562 408.882 7.48053 395.99 14.319C391.907 16.5591 388.038 19.1834 384.432 22.1578C384.432 22.1578 376.193 33.4354 373.318 31.5364C368.707 35.4019 363.972 39.0568 358.678 41.8121C345.992 48.4208 331.178 49.2944 316.968 48.361C315.819 48.2911 314.674 48.2058 313.535 48.1051C310.731 50.0767 301.297 46.6472 301.297 46.6472C288.062 44.6256 275.078 41.1542 262.569 36.2928C242.731 28.5736 224.3 17.4464 204.508 9.61966C184.716 1.79294 162.585 -2.61456 142.297 3.75088C123.258 9.73218 108.134 24.3938 94.544 39.2517C72.1816 63.6443 51.7705 89.8345 33.5077 117.57C21.2004 136.257 9.73603 155.984 4.2379 177.808C-6.21957 219.53 7.83071 266.716 39.2898 295.349Z" fill="#FFC70E"/>
</svg>
