<svg width="411" height="411" viewBox="0 0 411 411" fill="none" xmlns="http://www.w3.org/2000/svg">
<mask id="mask0" mask-type="alpha" maskUnits="userSpaceOnUse" x="0" y="0" width="411" height="411">
<rect width="411" height="411" fill="#C4C4C4"/>
</mask>
<g mask="url(#mask0)">
</g>
<g clip-path="url(#clip0)">
<path d="M264.091 287.685C261.354 279.097 257.959 270.263 253.877 261.721C262.801 152.195 188.314 134.617 155.494 132.625L208.669 102.596C211.806 101.101 213.177 97.382 211.618 94.2851L197.426 65.982C195.933 63.0036 192.367 61.7487 189.34 63.154C183.863 65.6957 174.638 70.3079 163.554 77.0858C163.586 77.0655 163.624 77.0395 163.658 77.0193C155.703 61.0229 141.021 55.8816 130.065 54.4156C121.077 53.2213 113.681 46.7383 110.817 38.1589L104.482 19.2015C103.65 16.6916 101.296 15 98.643 15H78.4758C74.3879 15 71.4394 18.9008 72.5614 22.8218L79.1717 45.8969C81.3519 53.522 79.4993 61.5607 74.6112 67.7083C54.5223 49.2078 33.0534 52.0762 20.9955 56.1043C13.7126 58.5332 5.79768 58.1428 -1.33155 55.2917L-15.6683 49.5808C-18.8314 48.32 -22.4235 49.8613 -23.6731 53.0247L-29.9703 68.9054C-31.6344 73.1069 -28.3177 77.5889 -23.8036 77.2362C0.732707 75.3277 18.6123 110.837 29.8498 143.772C29.9744 143.891 30.0846 144.006 30.2093 144.125C18.6964 133.44 4.34806 124.638 -11.1861 125.665C-13.4475 125.815 -15.3784 127.403 -16.2192 129.499L-25.2648 152.071C-26.6361 155.489 -24.6965 159.286 -21.1392 160.277C-9.1798 163.638 13.011 173.431 -1.75194 197.97C-15.4393 220.724 -19.533 252.965 -3.08849 279.288C-20.7507 342.764 64.2783 398.459 138.713 384.32C164.221 398.714 197.327 394.342 224.931 388.417C243.17 384.502 265.146 377.608 270.951 356.887C277.065 335.02 270.768 308.603 264.091 287.685V287.685Z" fill="#DD352E"/>
<path d="M132.153 266.217C133.101 265.159 132.715 258.207 132.996 256.643C134.391 248.893 137.392 241.424 141.909 235.034C159.098 210.712 196.702 203.327 221.029 220.102C243.008 235.262 256.066 262.597 264.074 287.679C270.751 308.594 277.054 335.014 270.934 356.878C265.135 377.608 243.153 384.495 224.914 388.408C195.049 394.818 158.707 399.46 132.565 380.415C114.926 367.577 101.949 347.731 103.146 324.847C104.332 302.327 117.717 282.274 132.153 266.217V266.217Z" fill="#DD352E"/>
<path d="M132.577 380.431C114.938 367.59 101.952 347.745 103.158 324.86C104.344 302.329 117.73 282.281 132.165 266.219C133.113 265.16 132.728 258.209 133.009 256.644C134.227 249.89 136.731 243.392 140.327 237.597C117.933 214.178 72.7133 184.496 17.906 243.713C-52.5282 319.809 50.5283 401.075 138.709 384.321C136.618 383.138 134.563 381.874 132.577 380.431Z" fill="#931919"/>
<path d="M140.316 237.597C140.847 236.741 141.334 235.859 141.911 235.035C146.999 227.835 153.905 222.161 161.695 218.116C150.197 193.436 135.057 137.787 208.66 102.596C211.791 101.101 213.168 97.3825 211.609 94.2856L197.417 65.9825C195.924 63.0041 192.358 61.7492 189.331 63.1545C166.369 73.813 78.0088 120.385 60.1407 213.281C95.5695 200.191 124.002 220.533 140.316 237.597V237.597Z" fill="#B02721"/>
<path d="M161.706 218.115C161.706 218.115 161.7 218.124 161.694 218.124C180.229 208.503 203.913 208.287 221.041 220.102C235.494 230.075 246.036 245.325 253.872 261.721C262.802 152.195 201.535 134.001 168.725 132.009C142.458 163.669 153.083 199.603 161.706 218.115V218.115Z" fill="#324688"/>
<path d="M53.1958 216.227C55.5413 215.091 57.8607 214.116 60.154 213.266C73.763 142.477 128.301 98.6109 163.654 77.0135C155.701 61.0171 141.017 55.8729 130.063 54.4098C121.073 53.2155 113.677 46.7325 110.812 38.1531L104.478 19.1957C103.64 16.6916 101.286 15 98.6327 15H78.4743C74.3835 15 71.4291 18.9008 72.5569 22.8218L79.1672 45.8969C81.5533 54.2218 79.1672 63.0557 73.2238 69.3681C40.0912 104.565 47.2524 179.634 53.1958 216.227V216.227Z" fill="#DD352E"/>
<path d="M-3.09982 279.287C0.156033 267.564 6.91996 255.573 17.8936 243.711C30.1922 230.422 42.0037 221.637 53.189 216.227C51.0261 202.902 48.7183 184.448 48.2429 164.701C36.443 148.534 14.1971 123.979 -11.2032 125.664C-13.4704 125.815 -15.3984 127.402 -16.2363 129.499L-25.2906 152.071C-26.6591 155.488 -24.7137 159.285 -21.1621 160.277C-9.19113 163.637 12.9997 173.431 -1.76327 197.969C-15.4506 220.723 -19.5443 252.965 -3.09982 279.287V279.287Z" fill="#B02721"/>
<path d="M29.8498 143.773C37.3124 150.64 43.6009 158.326 48.26 164.708C47.4018 129.483 52.3798 90.0785 74.6314 67.9433C74.6314 67.8594 74.6227 67.8131 74.6227 67.7293C54.5368 49.223 33.0534 52.0857 20.9955 56.1108C13.7126 58.5398 5.79768 58.1494 -1.33155 55.3011L-15.6683 49.5815C-18.8314 48.3208 -22.4235 49.862 -23.6731 53.0255L-29.9703 68.9062C-31.6344 73.1077 -28.3177 77.5897 -23.8036 77.2369C0.732705 75.3284 18.6065 110.837 29.8498 143.773Z" fill="#324688"/>
<path d="M175.153 282.919C173.048 282.919 170.987 281.912 169.714 280.044C167.218 276.372 158.761 266.636 149.776 265.656C145.256 265.132 140.986 266.902 136.649 270.968C134.019 273.446 129.873 273.321 127.383 270.693C124.907 268.067 125.026 263.929 127.658 261.46C134.871 254.676 142.78 251.709 151.272 252.664C168.143 254.552 180.073 271.994 180.578 272.737C182.596 275.73 181.795 279.79 178.795 281.808C177.681 282.56 176.412 282.919 175.153 282.919V282.919Z" fill="#B02721"/>
</g>
<defs>
<clipPath id="clip0">
<rect width="380" height="379" fill="white" transform="translate(-69 15)"/>
</clipPath>
</defs>
</svg>
