<svg width="411" height="476" viewBox="0 0 411 476" fill="none" xmlns="http://www.w3.org/2000/svg">
<path opacity="0.8" d="M472.42 137.947C442.399 110.866 402.087 99.1248 362.656 91.951C326.643 85.4933 285.036 85.0707 251.913 68.1281C220.326 51.9723 191.583 32.0299 158.477 18.2927C133.106 7.77261 106.303 -1.00979 78.9405 0.093878C38.709 1.70829 0.123655 26.3941 -18.8179 62.6333C-34.8702 93.3365 -36.8502 129.323 -43.7626 163.396C-52.2924 205.383 -68.6037 245.267 -86.0316 284.283C-95.3901 305.241 -105.272 326.651 -106.798 349.629C-108.933 381.518 -93.9858 413.301 -70.5375 434.518C-47.0893 455.734 -15.9632 466.929 15.2838 469.371C31.9117 470.669 49.2878 469.465 64.0623 461.569C68.7404 458.983 73.1722 455.959 77.3001 452.534C77.3001 452.534 86.7105 439.578 90.02 441.738C95.2978 437.288 100.72 433.079 106.786 429.897C121.325 422.266 138.332 421.191 154.655 422.189C155.975 422.264 157.289 422.356 158.598 422.465C161.809 420.193 172.659 424.074 172.659 424.074C187.865 426.323 202.791 430.234 217.178 435.739C239.993 444.48 261.208 457.131 283.971 465.996C306.735 474.86 332.168 479.797 355.438 472.406C377.275 465.461 394.576 448.595 410.116 431.512C435.687 403.465 459.009 373.37 479.857 341.516C493.906 320.053 506.983 297.404 513.199 272.384C525.021 224.55 508.675 170.582 472.42 137.947Z" fill="#0FCBA7"/>
</svg>
