<svg width="411" height="411" viewBox="0 0 411 411" fill="none" xmlns="http://www.w3.org/2000/svg">
<mask id="mask0" mask-type="alpha" maskUnits="userSpaceOnUse" x="0" y="0" width="411" height="411">
<rect width="411" height="411" fill="#C4C4C4"/>
</mask>
<g mask="url(#mask0)">
</g>
<g clip-path="url(#clip0)">
<path d="M323.389 181.473C334.145 177.689 341.998 166.112 341.998 152.45V146.674C341.998 144.222 340.01 142.237 337.561 142.237C335.109 142.237 333.124 144.222 333.124 146.674V152.45C333.124 164.282 325.341 173.909 315.774 173.909H306.681C304.229 173.909 302.244 175.894 302.244 178.344C302.244 179.851 302.998 181.181 304.146 181.984C303.285 182.791 302.744 183.938 302.744 185.214C302.744 187.663 304.732 189.651 307.181 189.651H316.328C331.428 189.651 343.714 201.934 343.714 217.034V314.772C343.714 317.224 345.701 319.209 348.15 319.209C350.6 319.209 352.587 317.221 352.587 314.772V217.036C352.585 199.46 340.013 184.768 323.389 181.473V181.473Z" fill="#D81229"/>
<path d="M251.635 96.6519C264.667 90.2413 280.66 90.737 293.618 99.366C312.991 112.261 318.239 138.422 305.342 157.793C305.086 158.176 304.837 158.558 304.591 158.939C301.89 163.138 302.027 168.492 304.649 172.74C306.425 175.62 307.466 179.104 307.466 182.857C307.466 186.609 306.428 190.09 304.651 192.97C302.013 197.25 301.91 202.629 304.64 206.853C304.763 207.041 304.887 207.232 305.01 207.422C317.863 226.97 312.888 253.768 293.299 266.56C286.202 271.194 278.21 273.417 270.306 273.417C256.688 273.417 243.326 266.829 235.207 254.65C219.801 231.544 211.993 207.386 212 182.848C212.007 158.338 219.808 134.194 235.191 111.088C235.913 110.005 236.682 108.971 237.485 107.975C237.485 107.975 242.362 101.367 251.635 96.6519V96.6519Z" fill="#CF4842"/>
<path d="M253.483 254.649C238.08 231.543 230.27 207.386 230.276 182.847C230.283 158.337 238.087 134.193 253.467 111.09C254.189 110.004 254.961 108.97 255.762 107.974L269.911 96.6511C272.957 95.1527 276.167 94.0379 279.459 93.309C270.039 91.2095 260.198 92.4387 251.635 96.6511C246.287 99.2665 241.626 103.142 237.485 107.974C236.682 108.97 235.913 110.004 235.191 111.087C219.808 134.193 212.007 158.337 212 182.847C211.993 207.386 219.801 231.543 235.207 254.649C243.329 266.828 256.688 273.416 270.306 273.416C273.352 273.416 276.413 273.082 279.43 272.409C269.184 270.141 259.766 264.069 253.483 254.649V254.649Z" fill="#A83A36"/>
<path d="M394.423 181.473C383.667 177.689 375.814 166.112 375.814 152.45V146.674C375.814 144.222 377.802 142.237 380.251 142.237C382.701 142.237 384.688 144.222 384.688 146.674V152.45C384.688 164.282 392.471 173.909 402.038 173.909H411.131C413.583 173.909 415.568 175.894 415.568 178.344C415.568 179.851 414.814 181.181 413.666 181.984C414.527 182.791 415.068 183.938 415.068 185.214C415.068 187.663 413.08 189.651 410.631 189.651H401.484C386.384 189.651 374.099 201.934 374.099 217.034V314.772C374.099 317.224 372.111 319.209 369.662 319.209C367.212 319.209 365.225 317.221 365.225 314.772V217.036C365.227 199.46 377.8 184.768 394.423 181.473V181.473Z" fill="#1E59A2"/>
<path d="M480.516 107.975C481.249 109.022 482.088 110.005 482.81 111.088C498.191 134.194 505.994 158.338 506.001 182.848C506.008 207.386 498.198 231.544 482.795 254.65C474.673 266.829 461.313 273.417 447.696 273.417C439.791 273.417 431.799 271.194 424.7 266.56C405.111 253.768 400.136 226.97 412.989 207.422C413.115 207.232 413.238 207.041 413.359 206.853C416.089 202.629 415.988 197.25 413.35 192.97C411.574 190.09 410.535 186.609 410.535 182.857C410.535 179.104 411.574 175.623 413.352 172.74C415.972 168.492 416.109 163.138 413.408 158.939C413.164 158.558 412.913 158.176 412.657 157.793C399.762 138.422 405.01 112.261 424.381 99.366C437.342 90.737 453.335 90.2413 466.367 96.6519C466.367 96.6519 476.685 102.508 480.516 107.975V107.975Z" fill="#CF4842"/>
</g>
<defs>
<clipPath id="clip0">
<rect width="294" height="294" fill="white" transform="translate(212 59)"/>
</clipPath>
</defs>
</svg>
