 <svg width="89" height="89" viewBox="0 0 89 89" fill="none" xmlns="http://www.w3.org/2000/svg">
            <path d="M88.371 45.4256C88.0881 50.9968 85.684 54.0738 82.6413 55.758C76.8644 58.955 68.7991 57.0179 68.7991 57.0179C68.9777 63.5044 68.8174 69.9958 68.3191 76.4655C67.4877 86.3822 56.4997 88.8121 44.796 88.3064C33.0923 87.8007 26.0426 83.0138 26.0297 79.1397C26.0169 75.2656 25.4469 65.6618 25.4469 65.6618C25.4469 65.6618 18.1358 65.4946 12.5904 64.0376C10.2677 63.4333 8.25347 62.6062 7.22067 61.4663C-9.80564 42.6058 4.12225 1.71349 40.1205 0.0635703C76.1187 -1.58635 89.1766 29.2864 88.371 45.4256Z" fill="white"/>
            <path d="M24.5861 48.0791C23.1125 48.8357 21.4518 49.1512 19.8034 48.9876C18.4892 48.8429 17.223 48.4103 16.0949 47.7207C14.9668 47.0311 14.0045 46.1014 13.2765 44.9977C11.6936 42.648 10.9979 39.812 11.3137 36.9966C11.3483 36.6556 11.517 36.3423 11.7827 36.1257C12.0483 35.9091 12.3891 35.8069 12.73 35.8416C13.071 35.8763 13.3843 36.045 13.6009 36.3106C13.8175 36.5762 13.9197 36.917 13.885 37.258C13.6309 39.4604 14.1687 41.6813 15.4021 43.5235C15.9184 44.3187 16.6033 44.9905 17.4084 45.4912C18.2135 45.9919 19.119 46.3092 20.0605 46.4206C23.939 46.8148 27.4746 43.3435 27.946 38.6808C27.9632 38.512 28.0134 38.3482 28.0939 38.1987C28.1744 38.0493 28.2835 37.9172 28.415 37.81C28.5465 37.7027 28.6979 37.6224 28.8604 37.5737C29.023 37.5249 29.1936 37.5087 29.3624 37.5258C29.5312 37.543 29.695 37.5932 29.8445 37.6737C29.9939 37.7542 30.126 37.8633 30.2332 37.9948C30.3405 38.1263 30.4208 38.2777 30.4695 38.4403C30.5183 38.6028 30.5345 38.7734 30.5174 38.9422C30.0974 43.0821 27.7275 46.4977 24.5861 48.0791Z" fill="#46225C"/>
            <path d="M70.1185 44.2771C68.6421 45.0302 66.9811 45.3454 65.3315 45.1856C60.0388 44.6456 56.2332 39.2672 56.846 33.186C56.8801 32.845 57.0483 32.5315 57.3135 32.3145C57.5787 32.0975 57.9193 31.9948 58.2603 32.0289C58.6012 32.063 58.9147 32.2311 59.1317 32.4964C59.3487 32.7616 59.4515 33.1021 59.4174 33.4431C58.946 38.1058 61.7144 42.2157 65.5929 42.61C69.4713 43.0043 73.007 39.5287 73.4784 34.8659C73.513 34.525 73.6817 34.2117 73.9474 33.9951C74.213 33.7785 74.5538 33.6763 74.8947 33.711C75.2357 33.7456 75.549 33.9143 75.7656 34.18C75.9822 34.4456 76.0844 34.7864 76.0497 35.1274C75.6169 39.2758 73.2469 42.6914 70.1185 44.2771Z" fill="#46225C"/>
            <path d="M25.4472 65.6403C25.4472 65.6403 18.136 65.4732 12.5905 64.0161C12.5905 64.0161 10.9919 52.3593 18.2389 53.3964C25.4858 54.4335 25.4472 65.6403 25.4472 65.6403Z" fill="#F18982"/>
            <path d="M82.6406 55.7369C76.8636 58.934 68.7982 56.9969 68.7982 56.9969C68.7982 56.9969 68.4853 45.0701 75.6551 45.2072C82.8249 45.3444 82.6406 55.7369 82.6406 55.7369Z" fill="#F18982"/>
            <path d="M36.5208 53.2817C36.5208 53.2817 41.5434 59.0329 49.8789 53.0203C49.8789 53.0203 46.5833 36.735 44.3548 36.6879C39.345 36.5936 36.5208 53.2817 36.5208 53.2817Z" fill="#46225C"/>
            <path d="M36.2033 65.4685C40.6603 67.3671 48.4258 69.2227 55.5698 63.7543C55.9125 63.4998 56.325 63.3565 56.7517 63.3437C57.1784 63.3309 57.5987 63.4493 57.9561 63.6828C58.3134 63.9164 58.5905 64.2539 58.75 64.6498C58.9096 65.0457 58.9439 65.4811 58.8483 65.8971C57.8326 70.1827 55.3213 75.514 49.1586 77.7167C46.1587 78.7796 42.8674 78.7581 40.0775 77.2668C37.5918 75.9382 34.9348 73.2726 33.3962 67.9799C33.2858 67.6017 33.2846 67.2 33.3928 66.8212C33.5011 66.4424 33.7144 66.1019 34.008 65.8392C34.3016 65.5765 34.6636 65.4023 35.0521 65.3367C35.4406 65.2711 35.8397 65.3168 36.2033 65.4685V65.4685Z" stroke="#46225C" stroke-width="5" stroke-miterlimit="10"/>
            </svg>
