<svg width="410" height="411" viewBox="0 0 410 411" fill="none" xmlns="http://www.w3.org/2000/svg">
<mask id="mask0" mask-type="alpha" maskUnits="userSpaceOnUse" x="0" y="0" width="411" height="411">
<rect width="411" height="411" fill="#C4C4C4"/>
</mask>
<g mask="url(#mask0)">
</g>
<g clip-path="url(#clip0)">
<path d="M88.0195 279.533C91.0418 254.39 105.024 251.111 105.024 251.111L119.385 265.475C119.385 265.475 116.113 279.465 90.9701 282.485C89.2743 282.688 87.8152 281.228 88.0195 279.533Z" fill="#D8D5ED"/>
<path d="M416.411 253.138H311.619V150.968H416.411C417.839 150.968 418.996 152.126 418.996 153.554V250.552C418.996 251.98 417.839 253.138 416.411 253.138Z" fill="#FF2C5C"/>
<path d="M399.012 150.968V253.138H416.405C417.833 253.138 418.991 251.98 418.991 250.552V153.554C418.991 152.126 417.833 150.968 416.405 150.968H399.012V150.968Z" fill="#E62753"/>
<path d="M377.705 205.657H331.6C328.841 205.657 326.605 207.893 326.605 210.652C326.605 213.411 328.841 215.647 331.6 215.647H377.705C380.464 215.647 382.7 213.411 382.7 210.652C382.7 207.893 380.464 205.657 377.705 205.657Z" fill="#D6244D"/>
<path d="M288.631 170.641H212.319L158.04 225.217L196.231 267.068L235.979 263.154C241.133 262.646 246.068 260.81 250.302 257.823C254.622 254.775 259.777 253.139 265.062 253.139H288.631V170.641Z" fill="#E89776"/>
<path d="M174.866 165.467L130.994 183.806C130.028 184.21 129.2 184.885 128.609 185.75L103.732 222.188C102.558 223.908 102.873 226.238 104.462 227.582L107.918 230.506C112.122 234.065 118.259 234.132 122.54 230.667L155.423 204.057L194.122 187.621L174.866 165.467Z" fill="#E8916F"/>
<path d="M117.983 267.593L102.913 252.521C101.872 251.48 101.872 249.791 102.913 248.75L270.57 81.0648C275.769 75.8651 284.193 75.8651 289.391 81.0648C294.596 86.2703 294.596 94.7153 289.391 99.9208L121.747 267.593C120.707 268.633 119.022 268.633 117.983 267.593Z" fill="#50536E"/>
<path d="M117.983 267.593L102.913 252.521C101.872 251.48 101.872 249.791 102.913 248.75L115.156 236.506L133.993 255.346L121.747 267.594C120.707 268.634 119.022 268.634 117.983 267.593Z" fill="#FFD659"/>
<path d="M249.318 148.097L213.167 131.597C211.017 130.616 208.551 130.601 206.39 131.558L150.991 156.07C146.452 158.078 144.665 163.59 147.159 167.884C152.83 177.649 164.399 182.313 175.248 179.207L195.553 173.395C198.803 172.465 202.301 173.408 204.643 175.848L233.123 205.516C241.136 213.863 251.413 219.682 262.688 222.255L288.632 225.216V150.969H262.524C257.968 150.969 253.464 149.989 249.318 148.097Z" fill="#EBAD88"/>
<path d="M325.341 260.866H281.927C278.467 260.866 275.662 258.061 275.662 254.601V147.126C275.662 143.666 278.467 140.861 281.927 140.861H325.341C328.801 140.861 331.606 143.666 331.606 147.126V254.601C331.605 258.061 328.801 260.866 325.341 260.866Z" fill="#D8D5ED"/>
<path d="M325.341 140.863H305.36C308.818 140.863 311.622 143.67 311.622 147.132V254.599C311.622 258.061 308.819 260.868 305.36 260.868H325.34C328.798 260.868 331.602 258.061 331.602 254.599V147.131C331.602 143.669 328.799 140.863 325.341 140.863Z" fill="#BEBADE"/>
<path d="M224.829 262.435L224.831 262.449C225.75 270.365 220.079 277.529 212.163 278.45L199.867 279.881C193.618 280.608 187.962 276.131 187.236 269.881L186.536 263.856C185.811 257.608 190.286 251.955 196.534 251.228L208.862 249.793C216.762 248.874 223.912 254.534 224.829 262.435Z" fill="#E8A67D"/>
<path d="M213.118 244.051L213.12 244.065C214.039 251.982 208.368 259.145 200.452 260.067L176.62 262.84C170.37 263.567 164.714 259.09 163.988 252.84L163.288 246.815C162.563 240.567 167.039 234.914 173.286 234.187L197.151 231.409C205.051 230.491 212.2 236.151 213.118 244.051Z" fill="#E8AB86"/>
<path d="M198.858 224.474L198.859 224.488C199.779 232.405 194.108 239.568 186.192 240.489L162.359 243.263C156.109 243.99 150.453 239.513 149.727 233.262L149.028 227.238C148.302 220.99 152.778 215.337 159.026 214.609L182.89 211.832C190.791 210.913 197.94 216.573 198.858 224.474Z" fill="#EBAD88"/>
<path d="M409.005 311.841H97.9953C92.475 311.841 88 307.366 88 301.845V301.835C88 296.315 92.475 291.84 97.9953 291.84H409.005C414.526 291.84 419.001 296.315 419.001 301.835V301.845C419 307.366 414.525 311.841 409.005 311.841Z" fill="#FFD659"/>
<path d="M409.008 291.84H389.029C394.546 291.84 399.019 296.317 399.019 301.84C399.019 307.363 394.546 311.841 389.029 311.841H409.008C414.525 311.841 418.998 307.363 418.998 301.84C418.998 296.317 414.526 291.84 409.008 291.84Z" fill="#FFBD54"/>
<path d="M303.455 186.509C308.973 186.509 313.445 182.036 313.445 176.518C313.445 171.001 308.973 166.528 303.455 166.528C297.938 166.528 293.465 171.001 293.465 176.518C293.465 182.036 297.938 186.509 303.455 186.509Z" fill="#FF2C5C"/>
</g>
<defs>
<clipPath id="clip0">
<rect width="331" height="331" fill="white" transform="translate(88 29)"/>
</clipPath>
</defs>
</svg>
