<svg width="398" height="357" viewBox="0 0 398 357" fill="none" xmlns="http://www.w3.org/2000/svg">
<path d="M364.637 103.308C342.169 83.0273 312 74.2344 282.489 68.8619C255.537 64.0258 224.399 63.7092 199.609 51.021C175.97 38.9219 154.459 23.9871 129.682 13.6994C110.695 5.82089 90.6351 -0.756231 70.1574 0.070305C40.0483 1.27933 11.1711 19.7665 -3.00478 46.9059C-15.0183 69.8994 -16.5 96.8498 -21.6733 122.367C-28.0569 153.81 -40.2643 183.68 -53.3073 212.899C-60.3112 228.594 -67.7071 244.628 -68.8486 261.836C-70.4466 285.718 -59.2602 309.52 -41.7116 325.409C-24.163 341.298 -0.868286 349.682 22.5169 351.511C34.9611 352.483 47.9654 351.581 59.0226 345.668C62.5237 343.732 65.8404 341.466 68.9298 338.902C72.8797 335.569 86.4568 324.332 90.9969 321.949C101.878 316.234 114.606 315.429 126.822 316.177C127.81 316.232 139.316 317.506 140.296 317.588C151.676 319.272 162.847 322.201 173.614 326.324C190.689 332.87 206.566 342.344 223.602 348.983C240.638 355.622 259.673 359.319 277.088 353.784C293.43 348.583 306.378 335.952 318.008 323.158C337.145 302.154 354.599 279.616 370.202 255.76C380.716 239.687 390.503 222.725 395.155 203.987C404.003 168.165 391.769 127.748 364.637 103.308Z" fill="#F8634B"/>
</svg>
