<svg width="411" height="400" viewBox="0 0 411 400" fill="none" xmlns="http://www.w3.org/2000/svg">
<path d="M443.493 115.922C418.235 93.1647 384.319 83.2982 351.143 77.2697C320.844 71.8431 285.838 71.488 257.97 57.2505C231.395 43.6742 207.212 26.9159 179.358 15.372C158.012 6.5316 135.461 -0.848565 112.44 0.0788891C78.5917 1.43554 46.1281 22.1799 30.1916 52.633C16.6861 78.434 15.0203 108.675 9.20454 137.308C2.02805 172.59 -11.6954 206.107 -26.3583 238.893C-34.2321 256.505 -42.5465 274.497 -43.8298 293.806C-45.6263 320.603 -33.0505 347.312 -13.3225 365.141C6.40561 382.97 32.5935 392.377 58.883 394.43C72.8728 395.52 87.4921 394.509 99.9226 387.873C103.859 385.7 107.587 383.159 111.06 380.281C115.501 376.542 130.764 363.932 135.868 361.258C148.1 354.845 162.409 353.942 176.142 354.781C177.253 354.843 190.189 356.272 191.29 356.365C204.084 358.255 216.641 361.541 228.746 366.167C247.941 373.513 265.79 384.144 284.942 391.593C304.094 399.042 325.493 403.191 345.071 396.98C363.443 391.144 377.999 376.971 391.074 362.615C412.588 339.046 432.209 313.756 449.75 286.988C461.57 268.952 472.572 249.919 477.802 228.894C487.748 188.697 473.996 143.346 443.493 115.922Z" fill="#EA378E"/>
</svg>
