<svg width="411" height="411" viewBox="0 0 411 411" fill="none" xmlns="http://www.w3.org/2000/svg">
<mask id="mask0" mask-type="alpha" maskUnits="userSpaceOnUse" x="0" y="0" width="411" height="411">
<rect width="411" height="411" fill="#C4C4C4"/>
</mask>
<g mask="url(#mask0)">
</g>
<g clip-path="url(#clip0)">
<path d="M219.536 73.0301C220.322 70.0567 223.415 68.2707 226.408 69.0621L382.314 110.288C385.306 111.08 387.112 114.161 386.326 117.134L340.166 291.699L275.219 330.218L165.053 301.087C162.06 300.296 160.255 297.214 161.041 294.241L219.536 73.0301Z" fill="#F0EEF0"/>
<path d="M382.32 110.29L363.646 105.352C366.638 106.143 368.444 109.224 367.658 112.198L321.498 286.762L275.225 330.219L340.172 291.7L386.332 117.136C387.118 114.162 385.312 111.081 382.32 110.29Z" fill="#DFDDE0"/>
<path d="M275.225 330.22L287.56 283.573C288.346 280.6 291.438 278.814 294.431 279.605L340.16 291.697" fill="#9B959D"/>
<path d="M194.397 280.739C191.747 280.038 190.835 276.625 192.754 274.688C192.797 274.645 194.968 272.449 198.098 269.056C198.046 267.449 198.125 265.676 198.361 263.723C200.033 249.908 209.839 230.667 218.899 227.905C221.888 226.994 224.761 227.813 226.781 230.152C231.281 235.364 227.721 244.66 215.238 260.294C211.959 264.401 208.56 268.31 205.648 271.536C206.096 273.83 207.068 275.666 208.753 276.668C212.807 279.082 217.85 272.214 224.529 262.25C227.35 258.042 230.188 254.348 233.923 255.482C237.802 256.651 237.824 261.075 237.858 267.772C237.883 272.698 237.925 280.943 240.326 283.116C240.62 283.383 241.054 283.643 242.031 283.566C243.94 283.417 245.738 284.712 246.031 286.604C246.354 288.683 244.859 290.575 242.795 290.77C239.949 291.04 237.414 290.25 235.465 288.487C230.698 284.172 230.652 275.099 230.615 267.809C230.612 267.301 230.609 266.753 230.604 266.197C230.585 266.225 230.565 266.254 230.546 266.283C227.158 271.338 223.654 276.564 219.936 280.031C216.436 283.294 211.012 286.44 205.049 282.892C203.284 281.842 201.426 280.178 200.073 277.544C198.548 279.14 196.928 281.408 194.397 280.739ZM221.199 234.783C218.934 234.86 211.253 243.432 207.14 257.214C206.915 257.969 206.705 258.739 206.513 259.516C207.453 258.394 208.397 257.246 209.328 256.086C223.012 239.023 221.322 234.92 221.298 234.886C221.256 234.837 221.222 234.804 221.199 234.783Z" fill="#9B959D"/>
<path d="M350.178 152.562L330.977 159.128C329.459 159.648 327.777 159.203 326.714 158.001L313.179 142.702C312.281 141.686 311.95 140.29 312.296 138.98L323.963 94.8584L364.579 105.599L352.947 149.59C352.579 150.981 351.54 152.097 350.178 152.562Z" fill="#FF8086"/>
<path d="M345.918 100.665L334.285 144.656C333.918 146.047 332.879 147.163 331.517 147.628L320.792 151.296L326.727 158.005C327.79 159.207 329.471 159.652 330.989 159.133L350.191 152.566C351.553 152.101 352.592 150.985 352.959 149.594L364.592 105.603L345.918 100.665Z" fill="#E5646E"/>
<path d="M284.45 132.862L236.831 120.27C232.315 119.076 234.167 112.074 238.683 113.268L286.301 125.86C290.817 127.054 288.965 134.056 284.45 132.862Z" fill="#9B959D"/>
<path d="M339.177 182.797L228.066 153.416C223.55 152.222 225.402 145.219 229.918 146.413L341.029 175.794C345.544 176.988 343.693 183.991 339.177 182.797Z" fill="#9B959D"/>
<path d="M333.128 205.672L222.017 176.291C217.501 175.097 219.353 168.094 223.869 169.288L334.98 198.669C339.495 199.863 337.644 206.866 333.128 205.672Z" fill="#9B959D"/>
<path d="M324.61 237.885L213.499 208.504C208.983 207.31 210.835 200.307 215.351 201.501L326.462 230.882C330.977 232.076 329.126 239.079 324.61 237.885Z" fill="#9B959D"/>
</g>
<defs>
<clipPath id="clip0">
<rect width="240" height="240" fill="white" transform="translate(188.354 59) rotate(14.8117)"/>
</clipPath>
</defs>
</svg>
