<svg width="411" height="411" viewBox="0 0 411 411" fill="none" xmlns="http://www.w3.org/2000/svg">
<mask id="mask0" mask-type="alpha" maskUnits="userSpaceOnUse" x="0" y="0" width="411" height="411">
<rect width="411" height="411" fill="#C4C4C4"/>
</mask>
<g mask="url(#mask0)">
</g>
<g clip-path="url(#clip0)">
<path d="M479.563 145.246L466.122 208.929L450.087 227.362L429.119 251.467L385.653 301.429L364.686 325.533L335.595 358.975C333.8 361.038 330.778 361.503 328.446 360.076L279.7 330.243C277.258 328.749 276.253 325.709 277.322 323.058L293.782 282.14L305.706 252.5L330.418 191.061L342.342 161.422L351.461 138.755L402.054 97.8089C403.973 96.2571 406.662 96.0826 408.769 97.3723L476.897 139.067C479.004 140.357 480.072 142.83 479.563 145.246Z" fill="#AC7233"/>
<path d="M351.46 138.757L342.342 161.423L330.417 191.062L305.706 252.501L293.781 282.14L277.322 323.059C276.253 325.71 277.258 328.75 279.699 330.244L328.446 360.077C330.778 361.504 333.8 361.039 335.595 358.976L364.685 325.534L385.653 301.429L429.119 251.468L450.086 227.363L466.121 208.931L351.46 138.757V138.757Z" fill="#9B6127"/>
<path d="M441.249 121.797L427.807 185.48L411.772 203.914L390.805 228.018L347.338 277.98L326.371 302.084L294.171 339.1L241.385 306.794C238.943 305.299 237.938 302.26 239.007 299.608L255.466 258.69L267.391 229.051L292.103 167.612L304.027 137.973L311.936 118.313C312.729 116.341 314.013 114.604 315.665 113.267L363.739 74.3596C365.658 72.8078 368.346 72.6334 370.454 73.923L438.582 115.618C440.689 116.908 441.757 119.381 441.249 121.797Z" fill="#C88B38"/>
<path d="M277.17 322.965L293.63 282.047L305.554 252.408L330.266 190.968L342.19 161.329L350.099 141.669C350.893 139.697 352.176 137.961 353.828 136.624L401.902 97.7161C403.821 96.1643 406.51 95.9899 408.617 97.2795L370.455 73.9241C368.348 72.6345 365.659 72.8089 363.74 74.3607L315.666 113.268C314.014 114.605 312.731 116.342 311.937 118.313L304.029 137.973L292.104 167.613L267.393 229.052L255.468 258.691L239.008 299.609C237.94 302.261 238.945 305.3 241.386 306.794L279.548 330.15C277.106 328.656 276.101 325.617 277.17 322.965Z" fill="#BC7D31"/>
<path d="M294.702 274.204C292.805 273.043 290.325 273.64 289.164 275.537L262.227 319.551L269.098 323.757L296.035 279.743C297.197 277.845 296.6 275.366 294.702 274.204Z" fill="#B2722B"/>
<path d="M328.149 282.951C326.251 281.79 325.655 279.31 326.816 277.413L371.584 204.264C372.745 202.366 375.225 201.77 377.122 202.931C379.02 204.092 379.616 206.572 378.455 208.469L333.687 281.618C332.526 283.516 330.047 284.113 328.149 282.951Z" fill="#BC7D31"/>
<path d="M271.952 248.558C270.054 247.397 269.458 244.917 270.619 243.019L315.387 169.87C316.548 167.973 319.028 167.376 320.925 168.537C322.823 169.699 323.419 172.178 322.258 174.076L277.49 247.225C276.329 249.122 273.849 249.719 271.952 248.558Z" fill="#B2722B"/>
<path d="M299.922 265.676C298.024 264.515 297.427 262.035 298.589 260.138L343.356 186.988C344.518 185.091 346.997 184.494 348.895 185.655C350.792 186.817 351.389 189.296 350.228 191.194L305.46 264.343C304.299 266.24 301.819 266.837 299.922 265.676Z" fill="#BC7D31"/>
<path d="M382.916 201.181L436.18 114.149L429.309 109.943L376.044 196.975C374.883 198.873 375.48 201.352 377.377 202.514C379.275 203.675 381.754 203.078 382.916 201.181Z" fill="#BC7D31"/>
<path d="M373.112 75.5498L319.847 162.582C318.686 164.479 319.283 166.959 321.18 168.12C323.078 169.281 325.558 168.684 326.719 166.787L379.983 79.7552L373.112 75.5498Z" fill="#B2722B"/>
<path d="M401.081 92.668L347.817 179.7C346.656 181.597 347.253 184.077 349.15 185.238C351.048 186.399 353.527 185.803 354.689 183.905L407.953 96.8734L401.081 92.668Z" fill="#BC7D31"/>
<path d="M375.063 292.816C374.873 292.7 374.691 292.567 374.518 292.416C372.839 290.956 372.662 288.411 374.123 286.733L406.428 249.596C407.888 247.918 410.431 247.741 412.11 249.201C413.789 250.661 413.966 253.205 412.506 254.884L380.201 292.021C378.891 293.526 376.709 293.823 375.063 292.816Z" fill="#91541D"/>
<path d="M330.461 344.094C330.272 343.978 330.09 343.845 329.917 343.694C328.238 342.234 328.061 339.69 329.522 338.011L342.228 323.404C343.688 321.726 346.232 321.547 347.911 323.009C349.59 324.469 349.767 327.013 348.306 328.692L335.6 343.299C334.29 344.804 332.108 345.101 330.461 344.094Z" fill="#91541D"/>
<path d="M355.36 288.34L343.77 307.278C342.429 309.468 339.564 310.157 337.374 308.817L245.64 252.675C243.451 251.335 242.761 248.47 244.101 246.28L255.691 227.342C257.031 225.152 259.897 224.463 262.086 225.803L353.82 281.945C356.01 283.285 356.7 286.15 355.36 288.34Z" fill="#91541D"/>
<path d="M419.836 214.301L408.246 233.239C406.906 235.429 404.041 236.119 401.851 234.778L281.316 161.01C279.126 159.67 278.441 156.808 279.782 154.618L291.372 135.68C292.712 133.49 295.572 132.798 297.762 134.138L418.297 207.906C420.487 209.246 421.176 212.112 419.836 214.301Z" fill="#91541D"/>
<path d="M285.117 261.817C276.311 256.427 273.541 244.918 278.931 236.112L262.086 225.803C259.895 224.462 257.032 225.151 255.691 227.342L244.101 246.28C242.76 248.471 243.449 251.334 245.64 252.675L337.374 308.817C339.566 310.158 342.429 309.469 343.77 307.278L348.028 300.319L285.117 261.817Z" fill="#874A18"/>
<path d="M320.798 170.155C311.991 164.765 309.221 153.256 314.611 144.45L297.762 134.138C295.574 132.799 292.714 133.487 291.374 135.675L279.782 154.618C278.441 156.809 279.13 159.672 281.321 161.013L401.851 234.778C404.042 236.119 406.905 235.43 408.246 233.239L412.505 226.28L320.798 170.155Z" fill="#874A18"/>
</g>
<defs>
<clipPath id="clip0">
<rect width="266" height="266" fill="white" transform="translate(306.854 35) rotate(31.467)"/>
</clipPath>
</defs>
</svg>
