<svg width="411" height="411" viewBox="0 0 411 411" fill="none" xmlns="http://www.w3.org/2000/svg">
<mask id="mask0" mask-type="alpha" maskUnits="userSpaceOnUse" x="0" y="0" width="411" height="411">
<rect width="411" height="411" fill="#C4C4C4"/>
</mask>
<g mask="url(#mask0)">
</g>
<g clip-path="url(#clip0)">
<path d="M186.929 74.7422C219.504 74.7422 245.912 101.065 245.912 133.535C245.912 170.949 251.274 208.362 251.274 208.362C251.274 208.362 224.464 224.397 186.929 229.741C149.395 224.396 122.585 208.362 122.585 208.362C122.585 208.362 127.947 170.949 127.947 133.535C127.946 101.065 154.353 74.7422 186.929 74.7422Z" fill="#D59F63"/>
<path d="M165.481 128.19V112.156C165.481 93.987 178.477 78.8551 195.706 75.4633C192.836 75.0352 189.921 74.7422 186.93 74.7422H186.929C154.354 74.7422 127.947 101.065 127.947 133.535C127.947 170.949 122.584 208.362 122.584 208.362C122.584 208.362 149.395 224.397 186.929 229.741V149.57L165.481 128.19Z" fill="#CD915A"/>
<path d="M251.896 247.089L215.128 232.429C211.056 230.806 208.387 226.875 208.387 222.505V203.018H165.49V222.505C165.49 226.875 162.82 230.806 158.749 232.429L121.981 247.089C115.874 249.524 111.869 255.42 111.869 261.976V283.189C111.869 286.141 114.27 288.534 117.231 288.534V336.638H251.283C254.244 336.638 256.646 334.245 256.646 331.293V288.534C259.607 288.534 262.008 286.141 262.008 283.189V261.976C262.007 255.42 258.003 249.524 251.896 247.089Z" fill="#FAD7A5"/>
<path d="M256.631 283.189V299.224H251.268C248.307 299.224 245.906 301.617 245.906 304.569V336.638H229.82V283.19H256.631V283.189V283.189Z" fill="#F0C891"/>
<path d="M165.482 220.313C172.139 222.916 179.358 224.397 186.93 224.397C194.502 224.397 201.721 222.916 208.378 220.313V203.018H165.481V220.313H165.482V220.313Z" fill="#F0C891"/>
<path d="M186.927 213.707C160.275 213.707 138.669 192.171 138.669 165.604V149.126C138.669 146.499 140.611 144.287 143.215 143.884C155.526 141.977 161.488 132.519 163.973 126.955C164.81 125.08 167.144 124.473 168.787 125.708C191.505 142.792 235.186 130.009 235.186 165.604C235.186 192.17 213.58 213.707 186.927 213.707Z" fill="#FFE1B4"/>
<path d="M165.48 165.602V125.471C164.853 125.786 164.291 126.244 163.974 126.953C161.489 132.518 155.527 141.976 143.216 143.882C140.612 144.286 138.67 146.499 138.67 149.124V165.602C138.67 192.169 160.276 213.705 186.928 213.705C191.585 213.705 196.073 213.012 200.333 211.785C180.211 205.991 165.48 187.527 165.48 165.602Z" fill="#FAD098"/>
<path d="M186.937 192.327C181.26 192.327 175.835 189.658 172.049 185.004C170.18 182.71 170.536 179.346 172.835 177.486C175.144 175.627 178.516 175.982 180.375 178.271C183.915 182.613 189.958 182.613 193.497 178.271C195.356 175.982 198.734 175.627 201.038 177.486C203.336 179.346 203.693 182.71 201.823 185.004C198.038 189.658 192.613 192.327 186.937 192.327Z" fill="#D7AF7D"/>
<path d="M208.381 165.603C205.417 165.603 203.018 163.209 203.018 160.258V154.912C203.018 151.961 205.417 149.567 208.381 149.567C211.344 149.567 213.743 151.961 213.743 154.912V160.258C213.743 163.21 211.344 165.603 208.381 165.603Z" fill="#64463C"/>
<path d="M165.485 165.603C162.521 165.603 160.122 163.209 160.122 160.258V154.912C160.122 151.961 162.52 149.567 165.485 149.567C168.449 149.567 170.847 151.961 170.847 154.912V160.258C170.847 163.21 168.449 165.603 165.485 165.603Z" fill="#64463C"/>
<path d="M251.884 247.088L229.011 237.969C225.161 257.643 207.792 272.499 186.927 272.499C166.061 272.499 148.693 257.643 144.842 237.969L121.97 247.088C115.863 249.524 111.858 255.42 111.858 261.976V336.637H138.668H235.186V288.534H256.634C259.595 288.534 261.996 286.141 261.996 283.189V261.976C261.995 255.419 257.991 249.523 251.884 247.088Z" fill="#FF507D"/>
<path d="M229.007 237.969C225.156 257.643 207.788 272.499 186.922 272.499C166.057 272.499 148.688 257.643 144.838 237.969L134.77 241.982C140.33 265.591 161.541 283.189 186.922 283.189C212.303 283.189 233.514 265.591 239.074 241.982L229.007 237.969Z" fill="#D23C69"/>
<path d="M235.177 282.272C235.177 279.437 236.307 276.718 238.318 274.713L259.548 253.552C261.09 256.035 261.988 258.925 261.988 261.976V283.189C261.988 286.14 259.587 288.534 256.625 288.534H235.177V282.272Z" fill="#D23C69"/>
<path d="M106.493 267.154H74.3204V336.638H106.493V267.154Z" fill="#966D50"/>
<path d="M100.008 210.484L52.879 197.672H9.98237L-37.1468 210.484C-44.1449 212.387 -49 218.723 -49 225.954V272.5C-49 275.451 -46.5995 277.845 -43.6377 277.845H-16.8274V336.638H79.69V265.819H111.862V225.954C111.862 218.723 107.007 212.387 100.008 210.484Z" fill="#00AAF0"/>
<path d="M52.881 197.672H9.98439L-11.0366 203.386C-8.22791 224.292 9.6904 240.431 31.433 240.431C53.1756 240.431 71.094 224.292 73.9027 203.386L52.881 197.672Z" fill="#0096DC"/>
<path d="M4.62335 178.964V197.671C4.62335 212.43 16.6266 224.395 31.4337 224.395C46.2408 224.395 58.244 212.43 58.244 197.671V178.964H4.62335Z" fill="#B48764"/>
<path d="M4.62335 191.198C12.6765 195.316 21.7781 197.671 31.4337 197.671C41.0892 197.671 50.1908 195.316 58.244 191.198V178.964H4.62335V191.198Z" fill="#966D50"/>
<path d="M79.6944 117.501V85.4316H-16.8223V117.501C-22.7453 117.501 -27.5463 122.286 -27.5463 128.19C-27.5463 134.094 -22.7447 138.88 -16.8223 138.88C-16.8223 165.447 4.78363 186.983 31.436 186.983C58.0884 186.983 79.6944 165.447 79.6944 138.88C85.6174 138.88 90.4184 134.094 90.4184 128.19C90.4184 122.286 85.6174 117.501 79.6944 117.501Z" fill="#C39772"/>
<path d="M9.9874 138.88V85.4316H-16.8223V117.501C-22.7453 117.501 -27.5463 122.286 -27.5463 128.19C-27.5463 134.094 -22.7447 138.88 -16.8223 138.88C-16.8223 165.447 4.78363 186.983 31.436 186.983C36.0925 186.983 40.5808 186.29 44.8412 185.063C24.718 179.268 9.9874 160.805 9.9874 138.88Z" fill="#B48764"/>
<path d="M31.4365 165.603C25.7602 165.603 20.3353 162.934 16.5493 158.28C14.6796 155.986 15.0362 152.622 17.3347 150.761C19.6441 148.905 23.0158 149.261 24.8752 151.547C28.4152 155.889 34.4578 155.889 37.9972 151.547C39.8614 149.26 43.2338 148.905 45.5378 150.761C47.8362 152.622 48.1928 155.986 46.3232 158.28C42.5377 162.934 37.1128 165.603 31.4365 165.603Z" fill="#966D50"/>
<path d="M9.98465 138.88C7.02105 138.88 4.62234 136.487 4.62234 133.535V128.19C4.62234 125.238 7.02044 122.845 9.98465 122.845C12.9489 122.845 15.347 125.238 15.347 128.19V133.535C15.347 136.487 12.9489 138.88 9.98465 138.88Z" fill="#553732"/>
<path d="M52.8808 138.88C49.9172 138.88 47.5185 136.487 47.5185 133.535V128.19C47.5185 125.238 49.9166 122.845 52.8808 122.845C55.8444 122.845 58.2431 125.238 58.2431 128.19V133.535C58.2431 136.487 55.8444 138.88 52.8808 138.88Z" fill="#553732"/>
<path d="M67.5262 112.413C69.0922 116.546 73.5245 118.419 77.8906 117.655C78.4744 117.553 79.0751 117.5 79.6898 117.5C81.653 117.5 83.4692 118.064 85.0521 118.983V85.4305C85.0521 77.4341 80.5961 70.5451 74.0736 66.8784C72.8551 59.2271 66.261 53.3613 58.2418 53.3613H15.3451C-5.38431 53.3613 -22.1892 70.1122 -22.1892 90.775V118.982C-20.6063 118.063 -18.7907 117.499 -16.8269 117.499C-16.1375 117.499 -15.4651 117.566 -14.8151 117.694C-9.59313 118.719 -4.36384 115.841 -3.05606 110.699L-1.73735 105.441C-1.15484 103.117 0.889134 101.461 3.29088 101.396C13.2672 101.128 39.6019 99.8092 57.5578 93.3307C60.7371 92.1839 64.1629 94.1136 64.7187 97.4376L66.7263 109.445C66.8982 110.477 67.1685 111.468 67.5262 112.413Z" fill="#64463C"/>
<path d="M9.98283 85.4305C9.98283 67.7194 24.3866 53.3613 42.1555 53.3613H15.3451C-5.38431 53.3613 -22.1892 70.1116 -22.1892 90.775V118.982C-20.6063 118.063 -18.7907 117.499 -16.8269 117.499C-16.1375 117.499 -15.4657 117.566 -14.8157 117.694C-9.59313 118.718 -4.36445 115.841 -3.05667 110.699L-1.73796 105.441C-1.15544 103.117 0.887919 101.461 3.29027 101.396C5.05057 101.349 7.34055 101.266 9.98344 101.13L9.98283 85.4305Z" fill="#553732"/>
<path d="M149.121 306.258L131.614 300.442C129.425 299.714 127.948 297.672 127.948 295.371V283.189H95.7761V295.371C95.7761 297.672 94.2994 299.714 92.1097 300.442L74.6032 306.258C68.0346 308.441 63.604 314.568 63.604 321.47V331.293C63.604 334.244 66.0046 336.638 68.9664 336.638H154.759C157.72 336.638 160.121 334.245 160.121 331.293V321.47C160.12 314.568 155.69 308.441 149.121 306.258Z" fill="#E6AF78"/>
<path d="M95.7796 283.189V295.371C95.7796 295.677 95.6891 295.958 95.6393 296.252C100.284 297.989 105.231 299.047 110.389 299.202C110.881 299.216 111.377 299.223 111.866 299.223C117.572 299.223 123.026 298.183 128.11 296.362C128.047 296.034 127.952 295.714 127.952 295.371V283.189H95.7796Z" fill="#D29B6E"/>
<path d="M111.861 170.949C85.209 170.949 63.6031 192.486 63.6031 219.052V235.087H160.12V219.052C160.12 192.486 138.514 170.949 111.861 170.949Z" fill="#64463C"/>
<path d="M127.949 173.745C122.911 171.967 117.512 170.949 111.862 170.949C85.2098 170.949 63.6038 192.486 63.6038 219.052V235.087H95.7765V219.052C95.7765 198.117 109.218 180.355 127.949 173.745Z" fill="#553732"/>
<path d="M149.396 224.396V219.768C149.396 211.881 141.134 206.933 133.99 210.324C104.413 224.364 74.3271 224.396 74.3271 224.396C68.4041 224.396 63.6031 229.182 63.6031 235.086C63.6031 240.99 68.4047 245.775 74.3271 245.775V249.551C74.3271 270.037 90.1637 287.901 110.707 288.517C131.963 289.153 149.396 272.165 149.396 251.12V245.775C155.319 245.775 160.12 240.989 160.12 235.086C160.12 229.182 155.318 224.396 149.396 224.396Z" fill="#F0C087"/>
<path d="M140.296 161.855L111.86 174.002L83.4253 161.855C81.6558 161.099 79.6884 162.392 79.6884 164.311V188.274C79.6884 190.193 81.6565 191.486 83.4253 190.731L111.86 178.583L140.296 190.731C142.065 191.486 144.032 190.193 144.032 188.274V164.311C144.032 162.393 142.064 161.099 140.296 161.855Z" fill="#FFDC64"/>
<path d="M95.7751 251.121V222.163C83.0958 224.367 74.3271 224.397 74.3271 224.397C68.4041 224.397 63.6031 229.182 63.6031 235.086C63.6031 240.99 68.4047 245.776 74.3271 245.776V249.551C74.3271 270.037 90.1637 287.902 110.707 288.517C114.847 288.641 118.835 288.078 122.585 286.964C107.085 282.362 95.7751 268.066 95.7751 251.121Z" fill="#E6AF78"/>
<path d="M111.86 272.499C106.184 272.499 100.759 269.829 96.9732 265.175C95.1036 262.881 95.4601 259.517 97.7586 257.657C100.063 255.801 103.44 256.156 105.299 258.442C108.839 262.784 114.882 262.784 118.421 258.442C120.28 256.156 123.652 255.801 125.962 257.657C128.26 259.517 128.617 262.881 126.747 265.175C122.961 269.829 117.536 272.499 111.86 272.499Z" fill="#D29B6E"/>
<path d="M95.7773 245.774C94.3845 245.774 92.9862 245.184 91.9706 244.224C91.0018 243.208 90.4156 241.818 90.4156 240.429C90.4156 239.039 91.0024 237.65 91.9706 236.635C93.9551 234.657 97.5996 234.657 99.584 236.635C100.547 237.65 101.139 239.039 101.139 240.429C101.139 241.818 100.547 243.209 99.584 244.224C98.563 245.184 97.1701 245.774 95.7773 245.774Z" fill="#553732"/>
<path d="M127.947 245.774C126.554 245.774 125.156 245.184 124.14 244.224C123.659 243.741 123.281 243.154 123.015 242.46C122.747 241.818 122.585 241.123 122.585 240.429C122.585 239.732 122.747 239.039 123.015 238.396C123.282 237.702 123.659 237.115 124.14 236.635C126.125 234.657 129.717 234.657 131.754 236.635C132.235 237.167 132.613 237.702 132.879 238.396C133.147 239.038 133.309 239.732 133.309 240.429C133.309 241.818 132.717 243.209 131.754 244.224C130.733 245.184 129.34 245.774 127.947 245.774Z" fill="#553732"/>
<path d="M149.121 306.259L140.377 303.354C135.006 313.599 124.263 320.603 111.862 320.603C99.4607 320.603 88.7172 313.6 83.347 303.354L74.6032 306.259C68.0346 308.441 63.604 314.569 63.604 321.47V331.293C63.604 334.244 66.0046 336.638 68.9664 336.638H154.759C157.72 336.638 160.121 334.245 160.121 331.293V321.47C160.12 314.569 155.69 308.441 149.121 306.259Z" fill="#FFDC64"/>
<path d="M111.858 184.308C116.3 184.308 119.901 180.719 119.901 176.291C119.901 171.864 116.3 168.274 111.858 168.274C107.416 168.274 103.815 171.864 103.815 176.291C103.815 180.719 107.416 184.308 111.858 184.308Z" fill="#FFC850"/>
</g>
<defs>
<clipPath id="clip0">
<rect width="311" height="310" fill="white" transform="translate(-49 40)"/>
</clipPath>
</defs>
</svg>
