<svg width="411" height="671" viewBox="0 0 411 671" fill="none" xmlns="http://www.w3.org/2000/svg">
<mask id="mask0" mask-type="alpha" maskUnits="userSpaceOnUse" x="0" y="0" width="411" height="670">
<rect width="411" height="670" fill="#C4C4C4"/>
</mask>
<g mask="url(#mask0)">
</g>
<g clip-path="url(#clip0)">
<path d="M176.505 165.635C179.72 169.773 178.967 175.733 174.824 178.946C174.478 179.217 174.115 179.46 173.745 179.674C169.705 182.006 164.458 181.06 161.513 177.265L149.071 161.229C145.78 151.646 154.503 143.538 163.614 149.016L176.505 165.635Z" fill="#F7B239"/>
<path d="M169.052 172.911L157.915 158.556C157.915 158.556 163.908 154.024 164.8 150.545L163.614 149.015C156.258 147.35 149.357 152.58 149.071 161.227L161.512 177.263C164.458 181.059 169.704 182.005 173.744 179.672C174.115 179.458 174.477 179.215 174.823 178.945C175.704 178.261 176.43 177.454 176.999 176.566C174.021 176.705 171.022 175.449 169.052 172.911Z" fill="#E09B2D"/>
<path d="M133.585 170.168L141.255 188.959C143.069 193.408 141.265 198.424 137.222 200.759C136.854 200.971 136.46 201.165 136.052 201.329C131.198 203.311 125.663 200.981 123.683 196.13L115.737 176.656C116.867 171.689 117.044 169.691 120.906 168.161C122.929 167.36 131.238 165.625 133.585 170.168Z" fill="#F7B239"/>
<path d="M129.782 192.61L122.45 174.642C120.902 168.165 116.5 171.064 115.733 176.66L123.679 196.133C125.659 200.984 131.193 203.314 136.048 201.333C136.456 201.168 136.85 200.974 137.218 200.762C138.282 200.148 139.186 199.344 139.915 198.418C135.703 199.026 131.463 196.727 129.782 192.61Z" fill="#E09B2D"/>
<path d="M89.9034 116.729L101.739 130.994L97.4082 143.034L90.5022 155.596C87.9423 160.253 82.091 161.952 77.4357 159.395C72.7735 156.834 71.0749 150.983 73.6378 146.324L89.9034 116.729Z" fill="#F7B239"/>
<path d="M85.3063 152.337C80.6442 149.776 78.9455 143.924 81.5084 139.265L91.2718 121.502L93.9492 118.456L89.9088 116.725L73.6429 146.319C71.08 150.978 72.7787 156.83 77.4409 159.391C82.0963 161.948 87.9479 160.249 90.5074 155.592L91.7367 153.356C89.6159 153.761 87.346 153.458 85.3063 152.337Z" fill="#E09B2D"/>
<path d="M158.764 97.1753C164.08 97.2853 168.295 101.684 168.182 107.002C168.072 112.31 163.675 116.529 158.358 116.418L143.431 116.102L143.428 116.104L126.161 111.867L124.399 96.4522L158.764 97.1753Z" fill="#F7B239"/>
<path d="M165.469 102.286C165.358 107.594 160.961 111.812 155.645 111.702L140.717 111.386L140.714 111.387L126.287 96.4875L124.407 96.448L130.87 110.824L143.435 116.1L143.438 116.098L158.366 116.415C163.682 116.525 168.079 112.306 168.189 106.998C168.249 104.18 167.094 101.621 165.203 99.8206C165.393 100.609 165.486 101.435 165.469 102.286Z" fill="#E09B2D"/>
<path d="M89.5754 115.593C92.6139 115.958 122.309 99.1195 123.47 96.5808L124.397 96.4522L143.425 116.104L169.294 142.823C167.476 144.97 165.582 147.036 163.609 149.017C159.121 153.535 154.253 157.619 149.066 161.229C144.164 164.646 138.984 167.637 133.574 170.173C127.854 172.861 121.883 175.034 115.726 176.662C113.024 177.38 110.288 177.987 107.52 178.489L97.4049 143.034L89.9002 116.729L89.5754 115.593Z" fill="#2BA5F7"/>
<path d="M111.871 55.4294C108.486 53.1572 104.719 51.545 100.781 50.6519C92.9588 48.872 84.4763 49.9241 76.9801 54.252C72.2266 56.9965 68.4159 60.7421 65.6595 65.0734C64.067 67.5678 62.8276 70.2605 61.9621 73.0642C60.7649 76.918 60.2744 80.9881 60.5513 85.0591C60.875 89.9366 62.2937 94.8103 64.902 99.328C65.4135 100.214 65.9587 101.064 66.5389 101.881C72.071 109.729 80.5513 114.513 89.578 115.593C92.6165 115.959 95.7174 115.902 98.7867 115.4L99.65 116.895C102.877 122.484 110.023 124.399 115.612 121.172C121.204 117.944 123.119 110.797 119.892 105.208L119.029 103.713C120.825 101.52 122.312 99.1196 123.473 96.5812C127.685 87.3762 127.609 76.3696 122.358 66.8762C122.258 66.6954 122.156 66.5111 122.053 66.3321C119.444 61.8141 115.933 58.1484 111.871 55.4294Z" fill="#F7B239"/>
<path d="M111.871 55.4294L140.71 44.2457L120.322 37.3804C113.388 35.0498 105.831 38.4744 103.02 45.229L100.799 50.5746L100.781 50.652C92.9588 48.872 84.4763 49.9241 76.9801 54.252C72.2266 56.9965 68.4159 60.7421 65.6595 65.0734C64.067 67.5678 62.8276 70.2605 61.9621 73.0642C60.7649 76.918 60.2744 80.9881 60.5513 85.0591C60.875 89.9366 62.2937 94.8103 64.902 99.328C65.4135 100.214 65.9587 101.064 66.5389 101.881C74.2173 96.1993 78.823 87.642 79.7138 78.599C89.3011 83.4145 101.05 83.4636 111.037 77.6974C115.791 74.953 119.601 71.2073 122.358 66.8761C122.258 66.6952 122.156 66.511 122.052 66.332C119.444 61.8142 115.933 58.1484 111.871 55.4294Z" fill="#F95428"/>
<path d="M76.9885 54.2465C72.235 56.9909 68.4242 60.7366 65.6679 65.0679C64.0753 67.5623 62.836 70.255 61.9705 73.0587L61.8945 73.0356L56.1513 72.288C48.8965 71.3453 42.1522 76.1775 40.7067 83.3454L36.4581 104.435L60.5598 85.0531C60.8834 89.9307 62.3022 94.8044 64.9105 99.3221C65.422 100.208 65.9672 101.058 66.5474 101.875C66.6067 101.832 66.6672 101.785 66.7246 101.739C74.2989 96.0587 78.8373 87.5658 79.7222 78.5931C79.9703 78.7179 80.2244 78.8392 80.4772 78.9574C80.1019 77.306 79.8635 75.6382 79.7554 73.9705C79.4785 69.8995 79.9688 65.8296 81.1662 61.9756C82.0314 59.1721 83.2708 56.4794 84.8636 53.9848C85.6657 52.7258 86.5617 51.5131 87.5392 50.3624C83.922 51.0267 80.3563 52.3021 76.9885 54.2465Z" fill="#D33924"/>
<path d="M98.5991 115.428C96.2102 109.331 90.9245 107.915 89.5759 115.594L89.9007 116.73L97.4054 143.035L107.52 178.49C110.289 177.989 113.025 177.381 115.727 176.663C118.347 175.97 120.933 175.172 123.481 174.284L98.5991 115.428Z" fill="#2197D8"/>
<path d="M118.614 104.199C116.235 107.001 113.346 109.456 109.979 111.401C106.413 113.46 102.623 114.776 98.7895 115.398C95.7202 115.9 92.6195 115.957 89.5808 115.591C80.5543 114.511 72.0738 109.726 66.5418 101.878C66.5364 101.869 66.5296 101.865 66.524 101.855C74.0983 96.1752 78.6367 87.6822 79.5217 78.7095C79.852 78.875 80.1882 79.0367 80.5242 79.1905C81.2406 82.2957 82.4262 85.3435 84.1003 88.2431C84.6118 89.129 85.157 89.9788 85.7373 90.7956C91.2693 98.6436 99.7496 103.428 108.776 104.508C111.815 104.874 114.916 104.818 117.985 104.315C118.196 104.281 118.405 104.236 118.614 104.199Z" fill="#E09B2D"/>
<path d="M115.559 89.1559C116.861 88.4046 117.306 86.7405 116.555 85.4392C115.804 84.1378 114.14 83.692 112.838 84.4433C111.537 85.1946 111.091 86.8587 111.843 88.16C112.594 89.4614 114.258 89.9072 115.559 89.1559Z" fill="#333333"/>
<path d="M87.915 105.116C89.2164 104.365 89.6622 102.701 88.9109 101.399C88.1596 100.098 86.4956 99.6519 85.1942 100.403C83.8929 101.155 83.447 102.819 84.1983 104.12C84.9496 105.421 86.6137 105.867 87.915 105.116Z" fill="#333333"/>
</g>
<g clip-path="url(#clip1)">
<path d="M339.304 498.689C337.649 498.245 336.667 496.544 337.11 494.889L342.594 474.424C343.037 472.769 344.738 471.786 346.394 472.23C348.05 472.674 349.032 474.375 348.588 476.03L343.105 496.495C342.661 498.15 340.96 499.133 339.304 498.689Z" fill="#2BA5F7"/>
<path d="M350.69 546.182L305.711 534.13L302.445 546.319L347.424 558.371L350.69 546.182Z" fill="#E09B2D"/>
<path d="M378.071 505.592L365.233 553.504L349.831 549.377L304.853 537.325L289.451 533.198L302.289 485.286C303.789 479.687 309.545 476.364 315.144 477.864L342.898 485.301L370.649 492.737C376.251 494.238 379.571 499.993 378.071 505.592Z" fill="#F95428"/>
<path d="M321.937 479.686L315.143 477.865C309.544 476.365 303.788 479.688 302.287 485.287L289.45 533.199L296.243 535.019L309.081 487.107C310.582 481.509 316.338 478.185 321.937 479.686Z" fill="#E54728"/>
<path d="M295.767 589.734L284.058 586.597L272.668 629.105L284.377 632.243L295.767 589.734Z" fill="#F7B239"/>
<path d="M343.205 602.445L331.5 599.309L320.11 641.817L331.815 644.954L343.205 602.445Z" fill="#F7B239"/>
<path d="M331.395 599.71L327.441 614.464L339.146 617.6L343.1 602.846L331.395 599.71ZM279.997 601.751L291.706 604.889L295.66 590.134L283.951 586.997L279.997 601.751Z" fill="#E09B2D"/>
<path d="M377.342 574.148L355.51 568.298L352.208 580.623L374.039 586.472L377.342 574.148Z" fill="#F7B239"/>
<path d="M290.619 550.911L268.483 544.979L265.181 557.304L287.316 563.235L290.619 550.911Z" fill="#F7B239"/>
<path d="M319.109 500.134C324.896 501.684 328.326 507.632 326.777 513.415C325.226 519.201 319.282 522.633 313.496 521.083C307.713 519.533 304.281 513.589 305.832 507.803C307.382 502.02 313.326 498.584 319.109 500.134Z" fill="#F7B239"/>
<path d="M356.077 510.039C361.86 511.588 365.295 517.537 363.745 523.32C362.195 529.107 356.247 532.538 350.464 530.988C344.677 529.437 341.246 523.494 342.796 517.707C344.346 511.924 350.29 508.489 356.077 510.039Z" fill="#F7B239"/>
<path d="M292.425 629.32L288.628 643.491L263.364 636.722L267.161 622.551L273.939 624.367L285.648 627.504L292.425 629.32Z" fill="#F95428"/>
<path d="M339.863 642.031L336.066 656.202L310.806 649.434L314.603 635.263L321.38 637.079L333.086 640.215L339.863 642.031Z" fill="#F95428"/>
<path d="M378.633 576.567L365.448 625.774L354.275 622.78L364.675 583.964L367.978 571.639L370.454 562.399C376.625 564.053 380.287 570.396 378.633 576.567Z" fill="#F95428"/>
<path d="M274.706 559.861L264.305 598.677L253.131 595.683L266.316 546.476C267.97 540.305 274.313 536.643 280.484 538.297L278.008 547.536L274.706 559.861Z" fill="#F95428"/>
<path d="M357.579 582.062L350.251 609.413L341.935 607.185L341.936 607.181L330.231 604.044L330.229 604.048L294.494 594.473L294.495 594.469L282.786 591.332L282.785 591.336L274.469 589.107L281.798 561.757L285.1 549.432L287.576 540.192L302.978 544.319L347.956 556.371L363.358 560.498L360.883 569.738L357.579 582.062Z" fill="#2BA5F7"/>
<path d="M300.908 543.765L287.577 540.192L274.471 589.103L287.802 592.675L300.908 543.765Z" fill="#2197D8"/>
<path d="M329.775 514.22C331.765 506.792 327.341 499.129 319.914 497.139C312.485 495.148 304.823 499.573 302.833 507C300.842 514.428 305.266 522.091 312.695 524.081C320.122 526.071 327.785 521.647 329.775 514.22ZM308.827 508.606C309.931 504.484 314.185 502.028 318.307 503.133C322.43 504.238 324.886 508.491 323.781 512.613C322.676 516.736 318.424 519.192 314.301 518.087C310.178 516.982 307.722 512.729 308.827 508.606Z" fill="#4D4D4D"/>
<path d="M349.665 533.987C357.093 535.978 364.755 531.554 366.746 524.126C368.736 516.698 364.312 509.035 356.884 507.045C349.456 505.055 341.794 509.479 339.803 516.907C337.813 524.334 342.237 531.997 349.665 533.987ZM355.278 513.039C359.401 514.144 361.856 518.396 360.751 522.519C359.647 526.642 355.394 529.097 351.271 527.993C347.149 526.888 344.693 522.635 345.798 518.512C346.902 514.39 351.155 511.934 355.278 513.039Z" fill="#4D4D4D"/>
<path d="M342.654 570.71C344.309 571.153 346.01 570.171 346.454 568.516C346.897 566.86 345.915 565.159 344.26 564.715C342.604 564.272 340.903 565.254 340.459 566.909C340.016 568.565 340.998 570.266 342.654 570.71Z" fill="#4D4D4D"/>
<path d="M300.405 559.389C302.06 559.833 303.762 558.851 304.205 557.195C304.649 555.54 303.667 553.838 302.011 553.395C300.356 552.951 298.655 553.934 298.211 555.589C297.767 557.244 298.75 558.946 300.405 559.389Z" fill="#4D4D4D"/>
<path d="M345.01 477.424C347.877 478.192 350.825 476.49 351.593 473.623C352.362 470.755 350.66 467.808 347.792 467.04C344.925 466.271 341.977 467.973 341.209 470.84C340.441 473.708 342.143 476.655 345.01 477.424Z" fill="#F7B239"/>
<path d="M333.353 587.456L300.084 578.542C301.124 574.661 303.412 571.445 306.396 569.212C310.481 566.161 315.871 564.941 321.178 566.363C330.366 568.825 335.815 578.269 333.353 587.456Z" fill="#E09B2D"/>
<path d="M330.314 586.643L300.078 578.541C301.118 574.661 303.406 571.445 306.39 569.212C309.815 567.744 313.741 567.37 317.625 568.41C325.858 570.616 331.092 578.431 330.314 586.643Z" fill="#F7B239"/>
</g>
<defs>
<clipPath id="clip0">
<rect width="157" height="157" fill="white" transform="translate(9 93.5) rotate(-30)"/>
</clipPath>
<clipPath id="clip1">
<rect width="185.752" height="185.752" fill="white" transform="translate(258.076 443) rotate(15)"/>
</clipPath>
</defs>
</svg>
