<svg width="411" height="418" viewBox="0 0 411 418" fill="none" xmlns="http://www.w3.org/2000/svg">
<path opacity="0.8" d="M39.2898 295.349C65.3399 319.11 100.404 329.515 134.716 335.929C166.054 341.704 202.284 342.231 231.07 357.15C258.52 371.377 283.482 388.899 312.264 401.02C334.321 410.302 357.632 418.073 381.462 417.213C416.501 415.956 450.185 394.547 466.803 362.975C480.886 336.227 482.733 304.812 488.868 275.086C496.439 238.457 510.779 203.692 526.088 169.691C534.308 151.426 542.987 132.769 544.393 112.711C546.361 84.8744 533.454 57.0651 513.107 38.4505C492.761 19.836 465.694 9.94252 438.493 7.69153C424.018 6.49559 408.882 7.4805 395.99 14.319C391.907 16.5591 388.038 19.1834 384.432 22.1578C379.821 26.0233 363.972 39.0567 358.678 41.812C345.992 48.4208 331.178 49.2943 316.968 48.361C315.818 48.291 302.436 46.7478 301.297 46.6472C288.062 44.6256 275.078 41.1542 262.569 36.2928C242.731 28.5735 224.3 17.4464 204.508 9.61963C184.716 1.7929 162.585 -2.6146 142.297 3.75084C123.258 9.73214 108.134 24.3937 94.544 39.2516C72.1816 63.6443 51.7705 89.8345 33.5076 117.57C21.2003 136.257 9.73598 155.984 4.23785 177.808C-6.21962 219.53 7.83065 266.716 39.2898 295.349Z" fill="#FFC70E"/>
</svg>
